/* XPM */
static char *col11723392978[] = {
/* columns rows colors chars-per-pixel */
"64 64 218 2 ",
"   c #010101",
".  c #000D00",
"X  c #00050C",
"o  c #00090D",
"O  c #001300",
"+  c #001B00",
"@  c #000612",
"#  c #000A13",
"$  c #000C1B",
"%  c #00051D",
"&  c #00111C",
"*  c #002400",
"=  c #002A00",
"-  c #003400",
";  c #003C00",
":  c #000C22",
">  c #000E29",
",  c #001125",
"<  c #00132B",
"1  c #001634",
"2  c #001935",
"3  c #004500",
"4  c #2FDF34",
"5  c #27E22F",
"6  c #5DBD5E",
"7  c #57BB59",
"8  c #61BB5D",
"9  c #5DBD62",
"0  c #61BD62",
"q  c #68B567",
"w  c #3BD343",
"e  c #49CB46",
"r  c #45CC4A",
"t  c #4ACB4A",
"y  c #49C947",
"u  c #44D04D",
"i  c #4CCB52",
"p  c #46CE50",
"a  c #55C254",
"s  c #5AC356",
"d  c #55C35B",
"f  c #5AC35C",
"g  c #51C84A",
"h  c #60C05E",
"j  c #5EC063",
"k  c #57C860",
"l  c #64C164",
"z  c #358DB8",
"x  c #2E96BE",
"c  c #3D93BD",
"v  c #3892B7",
"b  c #549DBD",
"n  c #5B9DBD",
"m  c #5D9AB6",
"M  c #639DBC",
"N  c #679AB5",
"B  c #51A1BE",
"V  c #79B5B8",
"C  c #73B9AA",
"Z  c #76C2AD",
"A  c #78C7B4",
"S  c #1C9CCD",
"D  c #1599CC",
"F  c #1597D4",
"G  c #169DD5",
"H  c #1B9CD5",
"J  c #169EDA",
"K  c #1A9CDB",
"L  c #1996D6",
"P  c #2C96C5",
"I  c #2599C4",
"U  c #2B99C4",
"Y  c #2495CA",
"T  c #2B96CA",
"R  c #249ACD",
"E  c #2C9BCC",
"W  c #2694C5",
"Q  c #3299CC",
"!  c #3496C6",
"~  c #239BD2",
"^  c #2A9BD2",
"/  c #229DDB",
"(  c #2696D3",
")  c #339BD2",
"_  c #2D8EC1",
"`  c #14A0D5",
"'  c #1DA2D6",
"]  c #13A0DA",
"[  c #1BA1DB",
"{  c #34A3D0",
"}  c #3AA5D4",
"|  c #3DABD5",
" . c #35A6DA",
".. c #3CA7DA",
"X. c #35ABDB",
"o. c #3DAADB",
"O. c #34ABD6",
"+. c #3FA1CE",
"@. c #169DE1",
"#. c #1A9BE2",
"$. c #17A2E0",
"%. c #34ABE2",
"&. c #3BAEE2",
"*. c #3BAFEA",
"=. c #34B0E5",
"-. c #3BB1E5",
";. c #2CAAE4",
":. c #4D9EC3",
">. c #4599C7",
",. c #529DC3",
"<. c #5B9DC1",
"1. c #45A4CD",
"2. c #4CA4CC",
"3. c #55A2C5",
"4. c #5BA2C4",
"5. c #53A3CA",
"6. c #57A7CB",
"7. c #45A6D3",
"8. c #4BA6D1",
"9. c #44AAD4",
"0. c #4BAAD5",
"q. c #45A6DA",
"w. c #42AADA",
"e. c #4BADD9",
"r. c #52A7D5",
"t. c #42B0DB",
"y. c #65A4C7",
"u. c #7BADC6",
"i. c #7DB5CC",
"p. c #7EB9CB",
"a. c #79B5C9",
"s. c #6EB9D3",
"d. c #6DBBDD",
"f. c #6DB5DC",
"g. c #7DB6D3",
"h. c #75BAD4",
"j. c #7BBAD4",
"k. c #74B7DA",
"l. c #74BBDC",
"z. c #7BBBDB",
"x. c #79B6D8",
"c. c #42A6E1",
"v. c #6ABBE5",
"b. c #74BAE2",
"n. c #61BCF3",
"m. c #7DC5DB",
"M. c #5EC1EB",
"N. c #79C7E4",
"B. c #68C8F7",
"V. c #7BCEF4",
"C. c #7BD2FC",
"Z. c #6FCDEC",
"A. c #87BBAB",
"S. c #8CAEBC",
"D. c #89AEB6",
"F. c #94ADBC",
"G. c #9BAEBB",
"H. c #93ACB4",
"J. c #8DB2BC",
"K. c #88B2B9",
"L. c #93B3BC",
"P. c #97B3BA",
"I. c #A1B2BA",
"U. c #84AEC4",
"Y. c #8CAEC2",
"T. c #85AECA",
"R. c #8DAFC8",
"E. c #90AFC2",
"W. c #85B4C5",
"Q. c #8BB2C4",
"!. c #84B5CC",
"~. c #8AB4CC",
"^. c #83B9CB",
"/. c #8CB9CC",
"(. c #85B9C7",
"). c #91B2C3",
"_. c #90B3CC",
"`. c #99B5C3",
"'. c #84B5D2",
"]. c #8AB5D2",
"[. c #83BAD3",
"{. c #8ABBD2",
"}. c #83BBDA",
"|. c #93BAD2",
" X c #A0BED6",
".X c #81C9C2",
"XX c #9EC1CA",
"oX c #8DC4D9",
"OX c #8AC7DA",
"+X c #93C2D4",
"@X c #9BC6D6",
"#X c #95CAD7",
"$X c #95C6DC",
"%X c #9AC6DC",
"&X c #95CADC",
"*X c #99C9DC",
"=X c #98C8D6",
"-X c #95D0DE",
";X c #A3C3CF",
":X c #A3C3D3",
">X c #A1C8DA",
",X c #8DCAE5",
"<X c #85CBED",
"1X c #8BCCEB",
"2X c #86C8E4",
"3X c #96C6E1",
"4X c #9AC6E1",
"5X c #94CAE3",
"6X c #9ACBE2",
"7X c #92CCEA",
"8X c #86D0EF",
"9X c #91D0EB",
"0X c #94D3E3",
"qX c #85CEF2",
"wX c #89CBF1",
"eX c #83D2F3",
"rX c #89D2F1",
"tX c #A2CBE4",
/* pixels */
"                X                     . O * = - - - - - - - - - - - - - - - - - - = * O .                                       ",
"  X           X         . O . . . . O O * 0 9 0 h f f 8 0 9 6 9 6 6 0 9 9 j 0 f 0 6 6 * O . . . . . . .                         ",
"                    O + * = = * * * * - ; e + . . . . O . . . . . . . . . . . . . + e ; - = * * * = = * + O         X           ",
"X             . . O * 6 6 6 l 0 9 0 9 d e a O X   X X X X X @ X o X @ X X X X X o O s e d 9 0 0 0 9 6 6 6 * + . .               ",
"      .   . . O * = 3 r + O . . . . O O O O   @ G.`.P.L.Q.).~.Q.Q.Q.).).E.F.F.G.@   O O O . . . O . . + t 3 = * + . .           ",
"          . + q 0 f r d O X   o X @ X # X @ % : E.Y.Q.W.W.!.^.i.i.'.~.(.Q.Q.Q.E.: % @ o o o X X o X X . k r d 0 q O .     .     ",
"          . * 8 O O O . . X I.L.).).Q.K.J.)._.].].!.!.!.!.^.!.^.'.{.$X#X=X=X%X>X_._.Q.J.Q.).).).F.G.X . . O O O q * .           ",
"          O = s O X @ % @ $ J.Q.!.!.!.~.~.!.].'.'.'.!.!.p.(.W.!.'.{.OX&X&X&X=X%X!.~.W.~.!.!.~.~.Q.F.# # @ @ X O h = O           ",
"        . * ; t O X G.`.E.Y./.W.!.!.!.!.~.!.'.^.^.'.'.!.i.i.!.~.].'.'.i.i.[.#X*X*X*X*X$XtX4X%X4X!.Q.Y.`.).G.X O t ; * .         ",
"        + h y d O X ).Q.T.~.i.^.p.!.!.!.!.!.!.!.!.i.!.'.'.'.].T.'.'.i.i.^./.+X$X*X*X*X%XtX4X%X$X{.u.|.Q.Q.).$ O f t l + .       ",
"    X . * 6 + O H.).Q.~._.!.^.a.p.(.!.!.W.p.!.!.!.!.!.!.^.!.!.!.^.!.^.!.~.W./.~.~.!.W./.%X*X=X#X+X3X!.~.~.).D.P.O + 6 * . X   X ",
"X     O = 8 . @ L.K.^.!.T.!.^.j.p.^.!.W.(.W.!.!.^.i.'.!.'.!.^.!.!.!.!.'.!.!.i.i.].!.W.(.%X*X>X&X0X&X].U.!.Q.K.P.@ . 8 = .       ",
"      . * 0 O # L.Q.!.'.].].'.u.!.!.!.i.^.^.!.!.!.i.'.i.!.'.'.!.^.^.'.~.'.'.^.'.!.^.!.!.!.Q.=X&XoX6X].~.].!.W.L.# . 0 = .       ",
"      . * 9 O # D.(.!.'.'.].u.{.!.!.!.!.'.!.'.!.!.i.p.^.!.'.'.!.^.!.!.'.'.{.'.'.T.^.^.!.i.W.=X6X6X6XT.T.'.[.W.L.# . 9 * .       ",
"      . = j . @ L.V '.^.^.!.{.g.!.g.'.'.'.'.'.!.!.^.i.^.^.!.^.[.'.^.!.!.^.^.!.!.!.!.!.!.^.^.3X3X+X%X!.!.{.i.W.J.X . l * .       ",
"      . * 6 . X Q./.'.i.!./.u.'.!.g.'.'.'.'.'.'.g.h.j.h.j.h.h.h.k.x.x.j.x.j.g.g.g.^.'.i.^.!.3X&X*X$X~.!.!.!.(.J.X . 9 = .       ",
"      . * 8 O o ).!.'.'.'.~.i.!.i.g.g.}.g.g.'.z.5.8.7.7.2.7.9.8.7.7.7.7.2.2.2.2.l.j.j.p.p.!.&X*X%X6X~.T.].T.~.).X . 6 = .       ",
"      . * 8 O o Y.!.'.].].!.!.i.}.a.z.x.k.l.l.b.7.O.o.o.| | X.o.o.o.&.&.o.w.o.7.M.l.s.[.p.^.%X&X$X6XT.~.].~.~.).@ . 9 = .       ",
"      . * 9 . o Q.~.'.!.!.!.!.!.u.z.,.r.2.r.1.e.| | o.o.o.o.X.X.&.o.o.q.o.q.o.q.5.2.r.,.,X3X&X3X&X&X!.i.^.!.W.L.@ . 9 = .       ",
"      . = 0 . @ S.~.T.~.~.T.~.!.}.l.r.q.q.w.....| | o...&.| | o.o.o...o.o.&.q.q.q.r.2.4.,X7X,X7X&X+Xp.p.^.!.Q.F.X . 9 = O       ",
"      . * 0 . X G.Q.~.~.~.~.Q.i.3.8.1.0.....o.| q.o.o.&.o.&...o...o.9.| o.o.c.c...7.eX9X5X2X4.b p..X^.i.!.!.~.E.@ . 0 * .       ",
"      . * 0 . X G.F._.U.U.~.Y./.n 6.2.0.e.w.| O.| o.o.o.q.w.o.o...| | q.q.&.c.c.c.e.Z.2X1X1Xy.M !.U.W.p.!.~.).`.@ . 8 = .     X ",
"      . = 8 . X X $  XtXtX|.& $ , 1 6.2.1.+.9.| q.q.| q.q...w.o.X.| | w.q.o.&.o.o.9.6.6.,.<.> : % : W.^.Q.S.# X   . 8 = .     X ",
"      . = h .   X X ;X@X>X>X$ $ $ < M n n 4.B 3.5.2.8.7.q.w.o.o.X.O.| q.q.7.8.2.5.3.n b y.y.> : > > '.g.!.J.#     . 8 = O       ",
"      . = f O   X o :X@X%X>X:X%Xn M < , , $ , , > 2 4.7.9.w.q.w.| | 0.7.8.,.2 < : : % % < < y.M 3.5.5.5.g.~.#   X . 0 * .       ",
"      . * 6 + O   o ;X@X%X%X@X&X6.2.2 , : : , : : < m b 3.6.:.5.5.5.5.<.n M < : : : : : : 1 ,.0.7.| ..1.z./.#   . + 9 * .       ",
"        + 8 t s O o ;X>X6X%X@X5X2.e.2.3.,.6.5.y.4.M < $ , , $ , : : : : : < N M y.b 4.B 5.8.e.o.o.o.{ ! s.Q.o O s g 0 + .       ",
"      . . * ; t O   ;X@X*X4X%X5X8.X.w.w.q.e...+.1.3.< : , $ , : : : $ , , 1 4.3.1.2.0.9.w.&. .o.%. .R x s.Q.o O y ; * . .       ",
"          O = f O o L./.*X4X4XwXP ~ %.&.} o.c.t.9.0.3.B B B b 3.3.b b 3.:.2.0.7.e.t.| +.o.%.~ H / / L P b.~.o O f = O           ",
"          . * 0 .   P.(.$X3X4XwX^ G =.%.X.-.X.X.O.9...w.9.w.7.7.7.7.e.e.w...&.X.X.X.-.O.&.%.K K K K G T k.~.# . 9 * O           ",
"          . = 0 O   L.Q.=X3X5XwXW H H ' [ F / / R ^ &.o.o.) c.w.| 9.{ ..&.%./ / H H F K ' H [ F K J G T k.T.X . l = .           ",
"    X     . = 0 O X L.Q.=X&X6XqXE H [ D ] ] K K H ~ %.=.%.*.&.%.O.&.&.%.=.;.K K $.J ] ] G [ [ K J G H T l.Q.# . 6 = O           ",
"          . = 9 . o Q.Q.=X&X%XwX( J J ] J J #.L K K H H ] K L G ' G H H H H J J K G ] K J ] K J K @.H I l.W.# . 6 = .           ",
"          . = 9 . X ).~.*X$X4X1X^ G J J $.[ K G K J [ G ] ] K J G J ] J J J J J ] J K ] J K K ] J J K I l.W.# . 9 = .           ",
"          . = 6 . X ).!.=X*X%X1XP H [ G ] ] J K K G H ] J K K K J J J J ] J J J J J J K J K J K K J H U l.W.@ . 6 = .           ",
"          . = 6 . X ).!.*X*X%X1Xz E D J J ] J K K J J J J K K K K J J J K J J J K ] J ] J ] G ] ] H H U l.Q.o O 8 = .           ",
"          . * 9 . X ).!.*X&X4X7XrXC.H G G G G G J ] J ] J K K #.K K J J J K J J H ] J J K J J J [ K R U l.Q.@ . 8 * .           ",
"          . = 6 . X Q.~.=X%X%X5X9XC.D [ G K K L J ] ] ] J J K J J ] G K J ] K ] J J J J ` ] K ] K G H U l.Q.X . 8 * .           ",
"          . = 6 . o ).!.*X*X*X3X5XeXP H F G @.@.] ] ] ] J J J J ] K J ] J K J G K ] J J J J J K ] K H P h.Q.@ . 6 = .           ",
"          . * 6 . o ).Q.=X&X4X3X5X<XP / G K J J @.] ] ] J J J ] K ] J K ] ] K ] J ] K J J J J ] ] J H P l.Q.@ . 6 = .           ",
"          . * 6 . X Q.W.%X&X%X&X&X<XP H K J J @.@.J ] ] G G J @.J K G ] J J ] G ] K ] K J K ] K J J [ U l._.@ . 9 = .           ",
"          . = 9 . # ).~.*X=X%X3X5X8XP H K J @.@.K J J ] G G J J J ] ] K J K K J K ] J J J ] J J ] J H T z._.@ . j = .           ",
"          . = 6 . X Y.~.*X=X%X6X$X1Xx ~ G K #.@.@.K J ] J G J J K J J J J ] J J J ` J ] J K J J $.J F P k.R.@ O j = .           ",
"          . = 9 . o F.W.*X*X%X4X&X9Xc W / K L #.K J ] ] G J J J ] J ] K J K ] K J J J K J ] K J J K ^ Q z.T.@ O 7 = .           ",
"          . * 6 . X Q.!.*X=X%X6X&X,XqXC.( G $.K K #.J ] ] ] @.@.J J J K J J J ] J K ] J K G J J ] H Y z j._.o O 9 = .           ",
"          . = 9 . X ).W.+X$X$X3X6X5X1XV.( K G G L K J J ] ] @.@.J J J J K ] J J J ] K J J ] ] H J H T >.j.).o . 8 * O           ",
"          . = 6 . X Q.W./.{.$X%X#X$X,XeXU [ F H K K J J ] ] #.#.K J J J J K J K J J J J K J J ] D ( n.b.}.J.o . 8 = .           ",
"          . = 9 O o G.Q.Q./.3X6X*X&XOXeXW H H H L K J J J J #.@.J J J J J ] J ] K ] K ] J J J K ' T n.x.W.H.o O 8 * .           ",
"          . * 8 . X X @ `.~.7X5XoX&X7XqXT ( ~ L H K J J J J @.@.] J J J J J @.J K J ] J K K J J H P d.!.$ X   . 8 * .           ",
"      X   . = 8 .   X @ `.T.<XqX0X3X7X<X! ) / / H K ] J @.] J ] @.J J J @.@.] ] J K G G #.#.K J L P l.Q.#   X . 8 = .           ",
"          . = 0 O     X Q.[.c z 2X6X3X7X7XV.( L K G H J @.] G G G ] G J J ] J G J J G G G G H H ~ z m.Q.o     . 0 = .           ",
"          . * 8 + . . X ).^.v v rX2X7XoX5XqX( L J K H ] ] ] ` G H H H J J K K ` ] J K K H G H H T c g.F.  . . + 8 * .         X ",
"            + 8 e a . # P.W.a.m.v B OX3X0XV.I G K J @.J J J K K J G ` K L / H G ` ] J @.J ] ` S M.b.!.P.X . s t 8 + .           ",
"          . . * ; t + @ H.).(.a.x P <X,X0X2Xx ' L #.K J ] ] #.#.J K J K K H ` ] ] J @.@.J ] G R v.z.Q.H.  O e ; * . .       X   ",
".             O - d . @ @ $ K.h.! z 8X-XOX0XN.C.~ K K G ` ` K #.K J J J G ` ` ` J K K J G H H T d.~.$ X X O a - O               ",
"              . * 6 .   @ @ ).j.c ! OX#X#X#XOXeXT H K [ ` G J K @.J K K ] ` G H K L K H R W Q c g.Q.# X   . 6 = O               ",
"              . = 6 .   X % `.!.z.}.!.!.@X|.4XwXx S S D ' G J K @.$.L / H K / H L ^ ( ^ n.v.b.g.Q.G.X     . 8 * .               ",
"              . * 6 + O   # G.)._._.U.U.>XtX4X7Xv U x D S H K #.$.] H Y Y T T P ) P Q _ b.'.|.).G.I.X . O + 8 * .         X   X ",
"              . + 6 e a . X X X # % |./.=X+XtX4Xm.a.N.M.x S / L ] G H P v.v.l.b.f.l.m.p.g.(.# o o     O 6 g 8 +                 ",
"                O * - t + . . O + O L.Q.XX>X:X:XW.K.[.s.z U T ^ ~ T P z z.'.i.!.!./.K.K.).P.O O O . O + y - + O                 ",
"                  O + 6 0 0 0 7 r d O @ o @ # @ @ % W.i.m.s.b.b.f.b.s.2X'.Q.& # # X o o   O d t f 6 0 0 8 * .                   ",
"                    . + * * * = ; t * . O . . . O O A.C Z A C .Xm.C A Z C A.+ + O O . . O + t ; - * * * + O                     ",
"                    . . . O . O + 6 6 0 9 0 0 d u u - ; - - - = = ; = - - = p r d 6 l 6 l 8 0 * O . . . . .                     ",
"                              . O * - - - - - 3 3 5 w t y y t i i t t t i u 4 3 ; - - - - = * O                                 "
};
