/* XPM */
static char *col21723392978[] = {
/* columns rows colors chars-per-pixel */
"64 64 216 2 ",
"   c #010101",
".  c #000D00",
"X  c #00050C",
"o  c #00090D",
"O  c #001300",
"+  c #001B00",
"@  c #000612",
"#  c #000A12",
"$  c #000619",
"%  c #000C1C",
"&  c #002500",
"*  c #002A00",
"=  c #003400",
"-  c #003C00",
";  c #000D22",
":  c #000E2A",
">  c #001225",
",  c #00142C",
"<  c #001532",
"1  c #001736",
"2  c #004900",
"3  c #2FDE31",
"4  c #5DBD5D",
"5  c #57BA5D",
"6  c #61BC5D",
"7  c #5DBD62",
"8  c #62BD63",
"9  c #67B666",
"0  c #46CC4B",
"q  c #4BCB4B",
"w  c #4AC947",
"e  c #51C94A",
"r  c #45D049",
"t  c #4CCB53",
"y  c #55C254",
"u  c #5BC357",
"i  c #54C35B",
"p  c #5AC35C",
"a  c #60C05E",
"s  c #5EC161",
"d  c #57C660",
"f  c #63C263",
"g  c #2F8FBF",
"h  c #348CB9",
"j  c #2C94BC",
"k  c #3393BC",
"l  c #3E93BD",
"z  c #3498BC",
"x  c #3A99B5",
"c  c #4193BF",
"v  c #529EBE",
"b  c #5D9CB9",
"n  c #639CBA",
"m  c #6297B9",
"M  c #59A1BE",
"N  c #4FA0BD",
"B  c #76B6B3",
"V  c #78C4B5",
"C  c #1D96CC",
"Z  c #1D99CD",
"A  c #1597CB",
"S  c #0F9BD7",
"D  c #1697D0",
"F  c #1B96D4",
"G  c #169ED6",
"H  c #1B9CD5",
"J  c #169EDA",
"K  c #199CDA",
"L  c #2C95C4",
"P  c #2699C6",
"I  c #2A99C5",
"U  c #2495CA",
"Y  c #2B96CB",
"T  c #249ACC",
"R  c #2B9ACC",
"E  c #2297C7",
"W  c #3697C7",
"Q  c #2096D1",
"!  c #239BD3",
"~  c #299BD3",
"^  c #229DDA",
"/  c #359CD2",
"(  c #14A0D4",
")  c #1BA1D5",
"_  c #14A1DB",
"`  c #1BA1DC",
"'  c #3DA5CC",
"]  c #22A1D7",
"[  c #32A2D0",
"{  c #3CA5D4",
"}  c #3CABD4",
"|  c #33AADD",
" . c #3CABDB",
".. c #39A7D8",
"X. c #37B1D8",
"o. c #179EE1",
"O. c #0F9EE0",
"+. c #19A3E2",
"@. c #27A5E3",
"#. c #34AAE2",
"$. c #3CABE2",
"%. c #3AACE8",
"&. c #36B0E5",
"*. c #499CC6",
"=. c #539CC3",
"-. c #5C9DC2",
";. c #5A9FC8",
":. c #45A3CC",
">. c #4CA4CC",
",. c #4CA9CD",
"<. c #48A7CA",
"1. c #54A3C4",
"2. c #5BA2C3",
"3. c #53A3CC",
"4. c #5AA3CB",
"5. c #45A6D4",
"6. c #4BA5D2",
"7. c #43AAD4",
"8. c #4AABD4",
"9. c #45A6D9",
"0. c #42AADA",
"q. c #4AABDA",
"w. c #48A3D8",
"e. c #52A5D4",
"r. c #41B1DB",
"t. c #64A4C5",
"y. c #79AEC6",
"u. c #7CB4CB",
"i. c #7DB9CC",
"p. c #7AB2C5",
"a. c #6EBADC",
"s. c #6BB7D9",
"d. c #73B7D3",
"f. c #7CB5D3",
"g. c #74B9D4",
"h. c #7BB9D5",
"j. c #74B6DA",
"k. c #74BBDB",
"l. c #7BBBDB",
"z. c #7FB7DC",
"x. c #6CBAE2",
"c. c #6ABEEC",
"v. c #69BBE6",
"b. c #70B7E3",
"n. c #74BDE1",
"m. c #78BCE4",
"M. c #61BCF2",
"N. c #5EC1EE",
"B. c #7AD2FE",
"V. c #77D3F5",
"C. c #6BC1E8",
"Z. c #83BDAB",
"A. c #8EAFBC",
"S. c #89AEB6",
"D. c #92ACB5",
"F. c #93ADBC",
"G. c #9AABB6",
"H. c #8BB2BD",
"J. c #88B4BB",
"K. c #93B2BC",
"L. c #9AB1BC",
"P. c #94B8B4",
"I. c #91B1AE",
"U. c #A1B1B9",
"Y. c #89CBB9",
"T. c #8FCBB3",
"R. c #84ADC5",
"E. c #8CAEC3",
"W. c #84AECA",
"Q. c #8DAFC9",
"!. c #92AEC2",
"~. c #94AFCA",
"^. c #84B3C5",
"/. c #8BB3C4",
"(. c #84B4CB",
"). c #8AB4CC",
"_. c #83B9CC",
"`. c #8AB9CC",
"'. c #88B8C6",
"]. c #92B3C4",
"[. c #91B2CB",
"{. c #9AB4C3",
"}. c #83B5D2",
"|. c #8AB6D2",
" X c #83BAD3",
".X c #8BBAD1",
"XX c #83BADA",
"oX c #92B9D5",
"OX c #8DCCDD",
"+X c #89C3DA",
"@X c #96C5D5",
"#X c #9AC5D5",
"$X c #95C9D5",
"%X c #95C6DC",
"&X c #9AC6DD",
"*X c #94CADD",
"=X c #9ACADC",
"-X c #9AC9D6",
";X c #95CED0",
":X c #A4CDDE",
">X c #83CCE5",
",X c #8BCBE4",
"<X c #84CDED",
"1X c #8CCCEB",
"2X c #87C6E4",
"3X c #9BC6E3",
"4X c #94CBE3",
"5X c #9ACAE3",
"6X c #94CBE8",
"7X c #84D1EA",
"8X c #8CD2EC",
"9X c #85D2E6",
"0X c #84CDF1",
"qX c #8FCEF6",
"wX c #85D2F8",
"eX c #A1C7E7",
/* pixels */
"              X                 X     . O & * = = = = - = = = = = = = = = = - = = * + O .                       X         .     ",
"X                     . . . . . . . . O & 8 7 7 7 4 4 4 4 4 7 7 7 6 8 4 7 4 4 4 8 4 8 & O . . . . . . . .                       ",
"X                   O + & * * & & & & = - w + O . O . . . . . . . . . O . . . . . + e - = * * & & * * & + .                 X   ",
"              . . O & 7 4 4 f 8 7 8 7 i q y O   X X X X X X @ @ @ @ X X X   X X X O u r 5 4 7 7 7 7 4 6 4 & + .               X ",
"      .   . . O & * - q + . . . O . . O O O . @ G.G.K.K.].!.W.E.E.E.E.F.K.K.L.G.@ X O O O O . O . . . + q 2 * & O . .           ",
"          . + 9 7 d 0 p . o X X X # # o @ @ $ $ K.H.[./.).`.`.`.|.).`.'./././.K.% $ X # o @ X X X X X . d 0 p 8 9 + .     .     ",
"          . & 6 O . O . . X U.K.K././.E.W.].~.[.`.'.@X@X@X$X&X&X3X&X*X$X#X@X`./.~.Q.]./.E.].].K.F.U.o . . . . O 6 & .           ",
"          O * u O   @ @ @ % S./.^./.(.(.`.).|.(.^.`.@X*X*X*X&X3X&X&X=X=X-X@X`.^.(.|.Q.).).(.^.^./.H.# # @ @ X O u * .           ",
"        . & - q O X F.~.{.E.[.(.`.W.`.W.(.`.&X5X5X=X*X%X4X4X).).3X&X*X*X*X&X*X4X&X3X&X&X&X5X^._.^.^.[.!.!.L.o O e - & .         ",
"    X   + p w i O @ ]./.Q.).p._.(.^.}.^.`.`.%X4X%X*X%X%X5X%X|.Q.&X&X*X*X*X*X3X3X%X3X&X&X:X=X(.^.i.^.[.Q./.E.# O p q 6 + .       ",
"      . & 4 + O I.K./.).[.)._.i._.i.).^.@X$X3X3X5X%X`.R.(.(.W.(.).^.(.^.(.(.(.(.5X5X=X@XeX#X@X$Xp._.Q.[.).].K.P.O + 4 & .       ",
"X     O & 8 . # K./.'.p.Q.(.i.h._.^.(.(.#X$X&X%X%X*X`.(.`.(.`.(.^.(.(.`._.(.^.(.=X=X=X$X=X@X=X*X+Xp.).R.(.'.J.D.X O 4 * O       ",
"      . & f . # K.'.`.}.|.|.f.y.W.(.`.^.'.^.(.`.(.(.u.}.|.W.(.(.(.(.}.}.}.(.(.^.^.^.^.(.`.(.&X%X+X5X`.|. X(.J.K.# . 8 & .       ",
"      . & 7 O @ S.'.u.}.}.|.y..Xu.`.(.(.(.p.^.(.i.}.f.}.}.}.|.}.(.(.(.}.}.}.(.(.^.^.(.(.(.`.4X3X4X4X(.W.}.}.R.H.# O 8 & .       ",
"      . * 8 . @ /.B }.(.}.p..X}.}.}.`.}.|.|.`.(.).(.}.}.}.(.(.(.(.(.(.(.(.(.(.`.(.`.(.`.i.`.}.u.(.y..Xp.}.(._.S.@ . 8 * .       ",
"      . & 7 . X /.`.`.(.(.`.y. X}.}.f. Xu.}.}.}.XXd.l.f.d.l.f.z.j.h.h.h.j.l.j.z. X`.u.}.p.}.f.}.u..X(.|.(.`.^.].@ . 8 * .       ",
"      O & 4 . @ /.^.`.W.).).(.}.(.}. XXXf.u.XXz.4.>.>.3.<.5.w.w.<.7.<.8.6.w.6.3.l.XXu.f.XXu.f.f.}.u.`.Q.W.}.(.!.@ . 7 * .       ",
"      . * 6 . @ ].'.(.|.).(._.}.oXd.l.j.k.k.m.v.w.9.9.9. . .9.$. . . .}  . .} 9.x.l.k.j.j.z.d.+Xi.(.(.).Q.}.(.].X . 7 & O       ",
"      . & 8 . X J.p.`.(.(._.p.i.y.l.1.,.,.6.5.q. . .7.0. . .0.$. . . .|  . .} } q.:.e.,.e.=.XXp.i.p.`.(.`.`.^.H.X . 7 & O       ",
"      O & 7 . @ /.^.(.W.u.i._.i.k.a.8.' 7. . ...$. . .X.|  .0. . . . . . . ...} {  .0.9.9.e.j.l.i.i.i.u.^.(.^./.@ O 7 & .       ",
"X     . & s O @ !.W.`.`._._.p.u.M ,.<.{ 7.} $. . .|  .} } |  .0. .$.$. .$. .0.9.} X. . .9.<.,.1.i.p._.`.}.`./.A.@ O 4 * .     X ",
"X     . * 4 . @ U.].[.(.^.(./.`.M 1.6.w.0.}  ...|  . .| X. .} }  .0.$.0. . .0. .{ } 0.q.q.3.3.b `./.`.p.(.).!.{.@ . 4 * .       ",
"      . * 4 . X   # S.).`.^.; $ % < t.6.w.:.q.9.0.$. . . . . . . . .9.9.0.0.0. .r.} :.:.>.=.< ; $ ; R.`./.S.#   X . 6 & .   X   ",
"      . * 4 .   X X F.).}.}.: ; > , n -.-.t.-.;.;.6.5.0.0. .0.} 9. .5.5.5.<.3.1.1.N 2.b 2.n , ; ; , }. X(.F.X X   . 6 & .       ",
"      . * s O     X ~.XX4.3.4.=.n n < ; % % # ; : 1 4.w.w.w.5.7.5.9.0.7.<.1.< ; ; ; % > > , t.M =.4.3.1.}.[.@     O 8 & .       ",
"      . & 5 + O   # ~.z.:.{ 5.:.4.n ; % # o % % ; : m -.;.4.v 1.2.*.3.=.1.b < ; ; , ; > ; < >.8.:.5.{ :.z.[.@ . O + 5 & .       ",
"        O f q y O o /.d.W [  .8.<X6X&X#X-X:Xn M 2.m , ; ; > % ; ; ; > > % , m 2.4.;.4.;.4.,.q.{ 0. .[ W d./.o O 5 q 8 +       . ",
"        . & - q O o J.d.j T | 9.<X%X3X&X;XOXN <.<.1., % > ; ; % > > % > ; , 1.:.' 5.0.9. .0...$.#.| ! j g.J.X O r - + .         ",
"          O * u O o (.n.Y Q ^ Y qXoX=X=X5X8X<.' ' 8.1.=.=.1.v 2.2.v M N =.>.8.7.r.r.0...&.| ! K ` ^ F L n.`.X O u * +           ",
"          . & 6 O # `.n.Y H K U qX3X=X=X%X>X7.X.|  .{ 0.q.q.7.7.7.7.0.0.7.{ 7.} | #.%.#.&.#.G ` J G H Y m.).# O 7 & .           ",
"          . * f O # W.j.L G G T 1X#X:X-X4X0XI T ! ~ %.%.0./ 0.7.7.0./ $. . .~ T Q ^ G ) ] ) H D _ ( H R j.W.# O s * .           ",
"          . * 6 . # /.k.R ) S T <X5XoX:X%X<XI H K K #.%.%.%.$.| | #.%.%.%.#.H K K J J _ A ) G _ _ S ) I l.W.# . 4 * .           ",
"          . & 4 . # _.k.P G J ! 1X%X=X#X4X<XY ^ K J G G K K H H H K K H G G K K K J _ J G K ) J J J K P k.(.# O 4 * .           ",
"          . * 4 . # ^.k.P K J ~ 0X%X=X%X*X<XY H o.J ( ( o.K o.K J ` J J K K J J J G K J J _ J J J J G P k.^.# . 4 & .           ",
"          . * 8 . # ^.k.L D K Y 1X#X&X%X4X<XL H J J G ( K K K G J J J J J J J J J J J J J J J J ` K H I k.^.# . 7 & .           ",
"          . * 4 . o /.k.L H J R 1X&X&X4X4X<XY H J O.G G G G G G K J J ( J J J J J J J J J J J J J G H L k./.X . 6 * .           ",
"          . & 6 . @ /.k.L Z ` T 1X=X=X4X4X0XY G K J K G G G G G J J J K J J _ G J G J J J J J J J K H L h.'.@ . 6 & .           ",
"          . & 6 . X /.k.L T ) P <X*X%X4X4X0XY K J o.K G G G J J J J J _ J J J K J J K _ J _ J J ` G T L g./.X . 6 & .           ",
"          . * 6 . X /.j.L H J T <X%X&X*X4X0XY o.J J K J K J K o.J J J G J K J J J J J _ J J K J J K H L k./.o . 7 * .           ",
"          . * 7 . @ /.k.L D J ! 7X*X=X%X4X0XY J J J K J K o.K J K J J J J _ J J J J J K J G J J _ J G L k./.@ . 7 & .           ",
"          . * 4 . # [.j.Y J J ! <X5X$X$X=X1Xg ! K J J J J o.o.J J J J _ J J J J J K _ J J J J J J J G I j.[.@ . 7 * .           ",
"          . * 7 . @ [.l.R G J U <X=X-X=X=XOXc Y ! J J J J J J J J J J K J J J J J J J J J J J _ J J K R l.).@ . s * .           ",
"          . * 7 . # ).j.L D ` ~ 1X=X=X-X#X4X2XB.T K J J J J J J J J J J J ( J J J K J G J J J J +.J D L j.Q.@ O 7 * .           ",
"          . * s O @ E.l.W ! ` P >X=X=X=X-X&X6XwXY H J J S _ O._ _ J J J J J K J J _ J J J J J J J ` ~ W m./.@ O d & .           ",
"          . * 7 . @ ].l.h U H P wX6X%X*X=X=X*XV.L G J _ J G K K G K G K J J J J J J J K J J J J G H U h h.].# . 7 * .           ",
"          . * 4 . o ].f.W / ! T B.<X6X*X*X*X*X8XY H G K K J K K J J _ J J J _ J J J J J J _ J G J H W c f.].o . 4 * .           ",
"          . & 6 O o K. Xb.M.~ A L l 2X3X*X,XOX<XL G G K J J J K J J J J J J J J J K J J J J J ) A T M.b.+XH.X O 6 * .           ",
"          . & 6 . # D.W.z.v.E ] T L wX8X,XOX6X<XY ! F K J J o.K J J J J _ K J G J ( _ J J J J G ) C c.z.^.D.o . 6 & .           ",
"          . & 6 .   X % ).a.R Z ^ Q Y L <X,X4X7Xj Z ( ( J o.J J J J o.J J J J _ J J ( J o.o.J G H I a.(.% X   . 6 & .           ",
"          . * 6 . X   o /.l.L F G J F ~ V.>X4X>Xz R Z ` K K o.J O.J J J J J J J K J J J K J J K H L k.^.#   X . 6 * .       X   ",
"          . * 6 .     X ].l.k ~ ` J o.C j x >X6X<XB.Y H K F J J J J K J O.o.J J J G J G H K K G ~ k l.].o     . 8 & .           ",
"X   .     . & 6 + . . X A.f.l R G S +.F Z j 7X1X1X0XW Y Q K J J G G K J o.J J J ( J J J K K K H Y l f.H.  O . & 4 & O           ",
"X           + 6 w u . X K.`.n.N.K O.o.K ^ Y wX1X4X6X>XV.R H K J K J J K H H K J J J o.o.J _ J Z N.n.(.F.X . u e 6 + .           ",
"          . O & - w O X D.E.l.v.! S K K F ~ B.<X,X%XOXOXx R D @.K K K G H H K _ _ O.o.O._ ( G T v.h.E.G.  O w - & O             ",
"            . O = y O   X % `.a.L ! ! ! K U I z 7XOX;XOX9XV.T A K K K J ( ( ) G J J J J D ( ! Y k.`.% X X O y * O               ",
"              . & p .   X @ /.f.l W L R C ! T j 7X,X$X$X*X>Xz P G J J G ( ( G G G H H F T P L W f./.@ X   . 4 & .               ",
"X             . & 6 .   X X L./.f.k.j.c.~ T T g 7X*X5XeX3X6X7XV.F _ G ! H G ! H Q ~ Q Y M.x.m.}.].L.X     . 6 & .         X     ",
"              . & 6 O O .   U.F.J.+X(.j.k Y g *.1X*X3XoXeX5X*XV.! _ F ! P Y Y L / L W h n.f..X!.L.U.X . . + 6 & .             X ",
"                + 6 e u O     o # # '. Xj.n.n.d.}.`.3X3X3X3X@X8XT G T L c.x.n.n.b.n.h.g.f.'.# @ X X   O a e 9 + .               ",
"                . + = e + O . O + + P.'.^.^..X)./.E.&X%X3XeX$X,XW I L h j.XXu.(.(..XJ.J.].P.O + O . O + e = & .                 ",
"                  O + 7 f 8 7 p 0 i O X # @ @ @ X # ].E.:X;X:X$Xg.a.a.>X XQ.% % % X X o X O d q p 4 7 f 6 & .                   ",
"                    O + & & & * - q + . . . . . O O Z.Z.T.;XT.;XV B V B B Z.+ O O . O . O + q - * * & + + .                     ",
"                    . . O . . O & 7 7 f 5 f 4 5 q q * = * * = = = - * = * = q 0 y 4 8 4 8 4 a & O . O . . .                     ",
"X                               O & * = = = - - 2 3 r t 0 0 q t t q q q t r 3 2 - = = = = * & O                                 "
};
