/* XPM */
static char *col31723392978[] = {
/* columns rows colors chars-per-pixel */
"64 64 209 2 ",
"   c #010101",
".  c #000D00",
"X  c #00050C",
"o  c #00090D",
"O  c #001200",
"+  c #001B00",
"@  c #000612",
"#  c #000A12",
"$  c #00061A",
"%  c #000C1B",
"&  c #00101E",
"*  c #002500",
"=  c #002A00",
"-  c #003400",
";  c #003C00",
":  c #000D23",
">  c #000E2A",
",  c #001122",
"<  c #00122C",
"1  c #001534",
"2  c #001930",
"3  c #004500",
"4  c #30DD2D",
"5  c #5DBD5D",
"6  c #58BD5A",
"7  c #61BC5D",
"8  c #5DBD62",
"9  c #61BD62",
"0  c #68B665",
"q  c #46CB4A",
"w  c #4BCB4B",
"e  c #4ACA47",
"r  c #51C94A",
"t  c #5BC457",
"y  c #55C35C",
"u  c #5AC35B",
"i  c #54C153",
"p  c #47CF48",
"a  c #60C05E",
"s  c #5EC161",
"d  c #56C660",
"f  c #61C164",
"g  c #388DBA",
"h  c #2993BD",
"j  c #3592BC",
"k  c #3F92BD",
"l  c #4494BC",
"z  c #539CBE",
"x  c #5B99B9",
"c  c #639DBC",
"v  c #57A2BE",
"b  c #78BFAE",
"n  c #64A1BB",
"m  c #7EB1BF",
"M  c #7CC5B2",
"N  c #1C9BCD",
"B  c #1599CC",
"V  c #0E9CD4",
"C  c #1397D3",
"Z  c #159ED5",
"A  c #1B9CD4",
"S  c #169EDB",
"D  c #199CDB",
"F  c #1996D4",
"G  c #2494C4",
"H  c #2B95C4",
"J  c #2699C6",
"K  c #2A98C6",
"L  c #2295CB",
"P  c #2B96C9",
"I  c #259ACC",
"U  c #2B9ACA",
"Y  c #3295C4",
"T  c #339BCA",
"R  c #3499C9",
"E  c #239BD4",
"W  c #219DDA",
"Q  c #2297DA",
"!  c #17A0CE",
"~  c #13A0D5",
"^  c #1BA1D4",
"/  c #13A1DB",
"(  c #1BA1DB",
")  c #3DA6CC",
"_  c #33A2D2",
"`  c #3BA4D5",
"'  c #3EABD6",
"]  c #35AADE",
"[  c #3CAADB",
"{  c #38A6DB",
"}  c #2FA0CA",
"|  c #169DE1",
" . c #1C9CE1",
".. c #229DE3",
"X. c #15A1E2",
"o. c #1BA2E2",
"O. c #34ACE3",
"+. c #3AABE1",
"@. c #3EAFE9",
"#. c #37AEE5",
"$. c #4897C2",
"%. c #5C9DC4",
"&. c #549CC3",
"*. c #45A4CD",
"=. c #4BA5CE",
"-. c #42A8CF",
";. c #4BA6CA",
":. c #55A3C4",
">. c #5AA2C3",
",. c #53A3CB",
"<. c #59A6C7",
"1. c #44A6D4",
"2. c #4BA6D3",
"3. c #43A9D4",
"4. c #4CABD5",
"5. c #44A6D9",
"6. c #42AADA",
"7. c #4BACD9",
"8. c #52A6D2",
"9. c #41B0DB",
"0. c #79ABC8",
"q. c #7EB2C7",
"w. c #7DB5CB",
"e. c #7DB9CB",
"r. c #77B0C9",
"t. c #6CBADB",
"y. c #6DB7DE",
"u. c #75B6D2",
"i. c #7CB5D2",
"p. c #75BAD4",
"a. c #7BBAD5",
"s. c #73B7DA",
"d. c #74BCDB",
"f. c #7CBBDB",
"g. c #7FB6DB",
"h. c #60A9CC",
"j. c #45AFE1",
"k. c #69BCE6",
"l. c #74BDE1",
"z. c #74B8E4",
"x. c #64BDF2",
"c. c #74C1DD",
"v. c #5FC0ED",
"b. c #69C1EC",
"n. c #7ECFF4",
"m. c #76CFF8",
"M. c #78D3FF",
"N. c #88BAAA",
"B. c #8DAEBC",
"V. c #89AEB6",
"C. c #93ADBD",
"Z. c #96ACB7",
"A. c #8CB2BE",
"S. c #81BFB2",
"D. c #94B2BC",
"F. c #9BB2BD",
"G. c #95B8BC",
"H. c #91B1AE",
"J. c #A1B2B9",
"K. c #8DD2BF",
"L. c #8CAEC3",
"P. c #87AFC9",
"I. c #91AEC2",
"U. c #94AFCA",
"Y. c #84B3C5",
"T. c #8BB3C4",
"R. c #84B5CC",
"E. c #8BB4CB",
"W. c #82B9CC",
"Q. c #8BBACD",
"!. c #89BBC6",
"~. c #91B4C4",
"^. c #91B3CB",
"/. c #99B4C7",
"(. c #84B5D2",
"). c #89B5D1",
"_. c #84BBD2",
"`. c #8ABBD2",
"'. c #87BCD9",
"]. c #92B8D4",
"[. c #8FD4C1",
"{. c #8DC5DA",
"}. c #8EC7D9",
"|. c #94C5DC",
" X c #9BC6DD",
".X c #95CADE",
"XX c #9AC9DD",
"oX c #96C5D6",
"OX c #91D4C3",
"+X c #84C9E6",
"@X c #8ECBE3",
"#X c #85CDEE",
"$X c #8CCDEB",
"%X c #91C4E2",
"&X c #99C7E1",
"*X c #95CAE2",
"=X c #9BC9E2",
"-X c #92CCE9",
";X c #99C4EB",
":X c #84D0ED",
">X c #8AD2EC",
",X c #8FD0E6",
"<X c #95D1E5",
"1X c #89C9F1",
"2X c #83D1F2",
"3X c #8AD3F1",
"4X c #9AD3F2",
"5X c #94C9F1",
"6X c #A3C8E5",
/* pixels */
"              X   X                   . O * = - - ; - - - - - - - - - - - - ; - - = * O                       X           .     ",
"X                     . . . . . . . . O * 7 5 9 8 5 5 8 8 8 u 5 u 9 f 9 8 5 u 5 9 9 9 * O O . . . . . . .       X           X   ",
"X                   O + * * = = * * = = ; e + . . . . . . . . . . . . . . . . . . + e ; = = = = * = = * + .         X         X ",
"              . . O * 5 5 5 9 9 9 9 8 y q t O X X X X # X @ X X @ @ X X X X X X X O t q y 8 8 9 8 9 5 5 u * O .                 ",
"      .   . . O * = ; w + . . . . . . O O .   @ Z.F.D.D.T.L.P.T.L.I.T.D.C.C.F.F.@   O O O O . . . . . + w 3 = * O O .           ",
"          . + 0 9 d q y O o X X X @ X # @ @ @ : C.L.T.T.Y.Y.(.'.(.R.E.T.T.^.L.I.% @ o X o X @ X o X X O y q u 9 0 + .     .     ",
"          . * 7 O . O . . X J.D.U.^.T.L.T.~.U.^.T.T.W.T.W.`.].=X=X&XoX.XoXoXQ.T.^.^.~.A.T.~.~.I.V.J.X . . O . O 7 * .           ",
"          O = t O   @ @ @ % B.T.Y.Y.E.E.E.E.E.(.R.W.Y.Y.Y.`.%X=X&X XoXXXXX|.`.P.R.E.Y.T.E.P.E.Y.T.D.% @ @ @ X O t = O           ",
"        . * ; w O @ Z./.I.I.^.Y.Y.Y.R.).).(.(.R.R.W.R.R.(.`.&X6X X XXX.X&X&X&X&X*X&X X X X=XY.Y.q.Q.L.I./.Z.X O w ; * O         ",
"      . O u e y O @ ^.T.P.).q._.W.W.R.(.).R.(.R.R.R.R.R.(.'.].&X X X.X*X&X&X&X&X%XoX X X X XW.W.W.P.E.P.T.~.o + y e 7 + .       ",
"  X   . * 5 + O H.G.Y.E.E.T.e.e.e.R.R.R.Y.R.R.).R.R.).R.R.R.R.E.E.E.R.R.R.R.R.Y.Q.E.XXXXXX=XoXoXe.e.R.).).L.~.H.O + 5 * . X     ",
"      O = 9 . # D.A.Y.Y.P.P.W.c.e.R.R.R.Y.R.R.R.R.R.R.E.R.R.R.R.Y.R.R.Y.Y.E.W.W.R.W.oXoX=XXXXX.X_.w.R.P.P.E.A.C.@ . 7 = O     X ",
"      . = 9 . # G.T.R.(.].).i.w.R.R.R.R.R.W.Y.Y.W.e.R.W.`.(.(.(.(.(.(.(.R.R.R.W.W.Y.`.Y.).R.R.R.w.R.(.).(.W.T.G.# . 9 * .       ",
"      . * 8 O @ V.Q.w.(.P.(.0.'.(.R.R.R.R.(.R.W.W.R.e.e.(.`.R.(.(.(.(.(.R.R.R.R.Y.Y.P.(.R.R.(.R._.q.).P.(.q.!.V.# O 9 * .       ",
"      . = s . @ T.m `.R.R.q.`.R.R.R.R.R.R.(.(.R.'.R.(.w.W.Y.q.w.i.R.R.R.R.R.R.R.R.).(.(.R.R.w._.w.`.R.(.(._.A.~.@ . f = .       ",
"      . * 8 . X A.!.R.R.W.R.q.R.(.i.R.(.(.(.(.i.i.d.a.p.p.p.c.d.s.a.i.i.a.p.p.i.i.'.i.).(.R.w.(.`.q.R.R.w.W.R.B.@ . 7 * .       ",
"      O = 5 . @ ~.Y.R.R.P.).R.(.i.i.W._.w.w.f.d.,.=.=.=.-.=.3.3.3.2.2.*.=.2.2.,.d.f.i.R._.w.R.w.(.w.E.E.P.).Y.~.@ . 5 = .       ",
"      . * 9 . X T.!.R.E.E.E.W.e.{.r.f.p.d.d.d.k.1.' [ ' [ [ #.[ +.] [ ' 5.5.[ 6.k.z.d.u.p._.r.'.w.W.R.E.).R.E.T.X . 9 = .       ",
"      . * 9 . X A.q.R.R.R.W.q.e.r.f.&.,.=.2.*.7.3.' [ [ [ ] +.+.+.] [ [ [ ' 3.3.7.*.4.2.8.:.f.r.e.e.R.R.R.E.Y.A.@ . 8 * O       ",
"      O * 8 . @ ~.W.Y.R.w.e.W.e.a.t.8.1.5.6.5.' ' 6.[ [ ] ' +.+.+.[ [ ' [ [ 6.[ [ 5.6.5.1.2.z.l.e.e.e.R.R.Y.W.A.X . 8 * .       ",
"X     . = s O @ C.T.).).W.W.q.w.:.8.2.` [ { +.[ +.6.{ [ +.[ [ ' [ [ [ ] ] [ [ [ 6.[ { [ ' 1.2.&.u.A.W.R.R.`.Y.C.@ O 5 = .     X ",
"X     . * 5 . @ F.~.E.Y.Y.W.Y.E.%.,.2.3.j.j.[ ` 6.+.+.{ [ [ 6.[ [ [ [ [ [ [ [ 6.` ' [ j.7.2.8.%.R.Y.R.R.Y.Q.C./.@ . 5 = .     X ",
"      . = 5 . X X o B.E.E.T.: $ > 1 <.*.) ) 3.6.6.[ [ [ 5.5.' [ [ [ 6.[ [ [ [ ' 9.3.) ) *.>.1 > $ % Y.R.E.V.#   X . 7 * .       ",
"      . = 5 .     X C.(.(.(.> : > 1 n v :.<.&.>.%.=.2.1.1.5.' ' 6.6.1.1.3.2.;.,.<.z :.:.>.c > : > < (.(.E.C.o X   . 7 * .       ",
"      . = s O     X ^.(.>.,.,.%.%.0.> > & & & , < 1 :.4.=.4.1.1.3.1.2.2.4.:.1 > , % , & < > 0.x %.<.8.<.(.^.#     O 8 * .       ",
"      . * 6 + O   # ^.'.=.` 1.1.2.&.1 > & & & & % 1 x :.>.z >.>.>.>.&.>.>.x 1 % : , , , : 1 &.8.1.1.` *.f.^.#   O + 5 * .       ",
"        O f w i O o P.u.Y _ [ 6.3.7.&.&.v <.v h.>.c < , : : : % % % , % , 2 c %.<.&.>.&.>.;.4.) 6.[ _ j u.T.o O 6 w 9 O       . ",
"        . * ; w O X T.p.h I ] O.[ _ ' ' -.-.) ) *.:.1 < , $ % # # # $ & : 1 &.=.1.1.3.5.' ' ) [ ] ] I h u.Y.X + q ; * .         ",
"          O = t O o E.l.P A W W W I ] [ ` ' 6.[ -.=.,.,.>.c oX XoX}.n x >.&.4.-.6.j.5.` +.[ E E A D E P l.E.o O u = +           ",
"          . * 7 O # E.z.P A D D ..E O.O.] @.] +.[ [ 3.5.*.<.$X-X<X>X:.*.4.' 3.' +.+.@.O.O.O.F D D F A P z.E.# O 5 * .           ",
"          . = f O # P.s.H A Z / C D A ( A F D Q E L @.+.3.;.@X{.|.$X;.-.j.O.N L Q D C S ( A ( V / ~ A H s.P.# O f = .           ",
"          . = 7 O # Y.d.U ^ V / / / ( S / X.D ..D W O.O.` -.$X*X;X1X1.[ O.O.W D  .S X.X.D ( ( ~ / V ^ U d.P.# . 5 = .           ",
"          . = 5 . @ W.d.I ~ S | S S S | | |  .D S S D D N U 2X@X@X2XR N A D C / | S | | S S Z D / S ~ K d.Y.@ . 8 = .           ",
"          . * 8 . @ Y.c.J A D S S S | | | | S S S S A A F H 2X,X,X2XH F D D / S S S S | | | D Z D D A J c.Y.# . 8 = .           ",
"          . = 8 . # Y.d.K A S D S S | | S S D S S / A A I j #X}.@X$Xj E A D / / S S S S S D S Z S D A K d.Y.# . 5 = .           ",
"          . = 7 . X T.d.H N Z S D S S / | S D D S C D E H l -X*X.X-Xk H E D C ( S S S Z S S D ( D D A K d.T.X . 7 * .           ",
"          . * 7 . X T.d.j A A ( S S ( Z S S ~ ~ Z ( A L M.1X%X&X&X%X#XM.L A ( Z ~ D D ( S Z D ~ ( Z E H p.T.X . 7 * .           ",
"          . * 7 . # T.d.H A S ( S Z S Z S Z A ~ S C W U n.$X&X&X&X&X$Xn.P W C D S Z S D Z ( Z S ( A N H c.T.@ . 7 * .           ",
"          . = 5 . @ T.d.K A Z S S S S S Z S Z Z ( Z A U 2X-X&X X X&X-X2XU A A ( Z A S S / S S S / S A K p.T.X . 8 = .           ",
"          . = 7 . @ L.d.H Z S | S S S S S S ~ / Z ( A G #X|.&X X&X&X%X#XH A D S Z S D S S / D S S Z A K d.T.@ . 8 * .           ",
"          . = 5 . @ ].s.P D S S D D S S D D S Z S V / K :X.X=X X&X&X.X$XK D S S S S S D S S D | | Z D K s.^.@ . 8 = .           ",
"          . = 8 . # T.f.U A S Z | D D S D S V S / S D I :X.X*XXX&X&X*X:XK D S S Z / D D D S | S S S ^ U l.^.# . s = .           ",
"          . = s O $ L.s.H C D o.D  .S S S S X./ S Z D I :X.X*X.X.X*X*X:XI S S | S S D D S | D S X.S A Y s.L.@ O 8 = .           ",
"          . = 8 . @ T.'.R E ( S D S S  .S S X.S / Z D P 2X.X*X.XXX.X@X:XI S Z S S Z D D D S D D S ( E R z.L.@ O d = .           ",
"          . = 8 . o ^.d.Y L A Z S S S | S D | S S S A I n..XXX XXX*X*Xn.J D Z Z S S D D S S S Z D A L g f.~.X . 8 = .           ",
"          . = 5 . o ~.i.l T A ^ S Z S S S S | S S S A P :X<XXXoX XXX*X2XU A A ~ S X.Z D Z ( D Z ^ A R k i.!.o . 7 * O           ",
"          . * 7 . o B._.z.x.E B Z ~ / S S S S S S A E U n.@X X X X X*X:XP D A D S | / Z S ~ Z ^ B E x.z._.A.X O 7 = .           ",
"          . * 7 . o B.P.g.x.J ^ A S Z ( Z F | S ~ A E U :X@X=X X XXX-X2XP E A Z S V Z ~ S S Z ~ ^ L k.s.Y.Z.o O 7 * .           ",
"          . * 7 .   X % E.t.U A D D S S Z ~ ~ / Z ~ A U 2X$X-X&X&X-X-Xn.H A S Z / ~ ~ ~ Z S D A N U t.R.% X   . 7 * .           ",
"          . = 7 . X   # T.a.H A D S D S Z ~ Z S / C A _ m.:X4X|.%X4X:Xm._ A C / Z ~ ! ~ Z A S D E H d.Y.#   X . 7 = .       X   ",
"          . = 7 .     X ~.d.j E Z Z S D S S D D S D D F U j {.<X=X$Xk J N D D S S Z S S D A Z S E j f.~.X     . 7 = .           ",
"X   .     . * 7 + . . X C.i.l P A S |  .S D D D D D  .W W K >X}.}.$XK W W D | | D D D S D S / A P k i.A.X O . + 5 * .           ",
"X           + 7 r t . X D.R.l.x.N S S |  . .D S S | | S C N >X<X<X>Xh Z V | | V D  . . .| | S A x.d.Y.C.X . t r 0 + .           ",
"          . O * ; e O X Z.L.p.k.I Z S | D D D S S / | S ( G :X}.}.:XJ ( S S X.S | D D D | S D I k.a.L.Z.  O e ; = O         X   ",
"            . O - i O   @ % Q.t.J A Z ( F S / / / / / S A G 3X*X<X>XG A ~ ( / V / Z F A ~ Z A K t.E.% @ X O i - O               ",
"              . * u .   X # T.e.j J I I N N ~ ~ / V / D E H 3X{.}.>XH A ( ~ V / / ~ ! N I I U j u.~.# X   . 7 = O               ",
"X             . * 7 O       /.T.u.f.y.b.U B ^ N ^ N D Q A T +X.X.Xn.R F N A A A A ^ N K b.t.l.i.~./.o     . 7 * .         X     ",
"              . * 7 O O . X J.Z.I.].(.f.j Y h T h U P P L H 3X|..X>XH P U G U G T H Y j f.R.].L.F.J.  . . + 7 *             X   ",
"                + 7 r t . X   X @ % L.'.u.d.f.s.c.t.k.x.R Y 5X;X;X$XY Y x.k.t.c.s.l.p.u.R.~.$ @ X X   O a r 7 O .               ",
"                . + - r + O . O O O G.^.B.Y.E.T.A.e.(.z.g l 5X;X;X5Xl g l.g.R.Y.T.T.Y.A.~.G.O O . . O + r - * O                 ",
"                  O + 8 f 9 5 u q d O # % X o @ o % ^.w.'.s.-X&X X*Xu.i.q.E.% @ @ # X % # O d w u 5 8 f a * .                   ",
"                    O + * * * = ; e + O O O . O O + N.S.b M K.[.OXOXM b S.N.O O . . O . . + q ; = = * * + O                     ",
"                    . . . . . O * 8 8 f 6 9 9 t w p = - - - = = = = - - - - w w 5 9 9 6 f 8 f * O . . . .                       ",
"X                             . O * = - - - - ; 3 4 p e w w w w w w w w w p 4 3 ; - - - - - * O                             X   "
};
