/* XPM */
static char *col421723561843[] = {
/* columns rows colors chars-per-pixel */
"64 64 252 2 ",
"   c #010202",
".  c #0A0103",
"X  c #000C01",
"o  c #02030A",
"O  c #09030B",
"+  c #000B0B",
"@  c #090C03",
"#  c #110007",
"$  c #001301",
"%  c #001B01",
"&  c #00130B",
"*  c #081805",
"=  c #000613",
"-  c #000C12",
";  c #000C1A",
":  c #00031B",
">  c #011213",
",  c #031414",
"<  c #002400",
"1  c #002C00",
"2  c #092A09",
"3  c #003300",
"4  c #003C00",
"5  c #053E0A",
"6  c #0D2E11",
"7  c #000A24",
"8  c #000D2B",
"9  c #000728",
"0  c #00142C",
"q  c #001628",
"w  c #001433",
"e  c #001A35",
"r  c #001B3C",
"t  c #001439",
"y  c #000F32",
"u  c #002123",
"i  c #004201",
"p  c #004A03",
"a  c #005600",
"s  c #002342",
"d  c #001B44",
"f  c #5AB85A",
"g  c #6E9E6F",
"h  c #6CAD6E",
"j  c #6CA66B",
"k  c #6BB26D",
"l  c #64B769",
"z  c #6EAC74",
"x  c #6BAC77",
"c  c #73AC73",
"v  c #7AAC75",
"b  c #7AA57A",
"n  c #75AD7B",
"m  c #7AAB7B",
"M  c #74A577",
"N  c #6DB273",
"B  c #68B476",
"V  c #72B475",
"C  c #74B27B",
"Z  c #7BB27A",
"A  c #73AE6C",
"S  c #5FBB66",
"D  c #5CC059",
"F  c #64C065",
"G  c #62C55B",
"H  c #82AD7B",
"J  c #2B8BBD",
"K  c #368FB9",
"L  c #2B95BD",
"P  c #3293BD",
"I  c #3993B7",
"U  c #328BA8",
"Y  c #1A8FBB",
"T  c #7AAB82",
"R  c #7BB283",
"E  c #4998B9",
"W  c #569ABB",
"Q  c #5291AB",
"!  c #6B9BBA",
"~  c #639AB7",
"^  c #7099B6",
"/  c #45A4BD",
"(  c #55A5B8",
")  c #68A0BC",
"_  c #75A8B9",
"`  c #78B5BA",
"'  c #6CB9AF",
"]  c #76C4B0",
"[  c #77C19E",
"{  c #1D9CCD",
"}  c #1995C9",
"|  c #159DD5",
" . c #1B9CD4",
".. c #169EDA",
"X. c #1A9CDA",
"o. c #1596D5",
"O. c #0C96CC",
"+. c #258EC3",
"@. c #2592C4",
"#. c #2C95C5",
"$. c #2B9AC4",
"%. c #2595CD",
"&. c #2B96CB",
"*. c #249ACE",
"=. c #2B99CC",
"-. c #249BC4",
";. c #3394C3",
":. c #339CCC",
">. c #3999C7",
",. c #249BD2",
"<. c #2A9BD2",
"1. c #229AD7",
"2. c #3699D1",
"3. c #0FA1DB",
"4. c #12A1DA",
"5. c #1DA2DD",
"6. c #18A2D5",
"7. c #18A0CA",
"8. c #2AA2CA",
"9. c #39A9CB",
"0. c #26A3D8",
"q. c #3BABD4",
"w. c #35ACDA",
"e. c #3DAADB",
"r. c #37A7D5",
"t. c #3BB2DB",
"y. c #219EE0",
"u. c #1BA2E1",
"i. c #36A9E2",
"p. c #3AB2E7",
"a. c #32AAEC",
"s. c #199EE1",
"d. c #489CC8",
"f. c #549DC5",
"g. c #5B9DC4",
"h. c #569DCC",
"j. c #649EC4",
"k. c #44A5CC",
"l. c #4BA4CD",
"z. c #4BACCD",
"x. c #46A6C6",
"c. c #54A1C5",
"v. c #53A3CC",
"b. c #59A5C7",
"n. c #44A6D4",
"m. c #4CA5D3",
"M. c #43AAD4",
"N. c #43A7DB",
"B. c #41A9DB",
"V. c #4CA9D7",
"C. c #52A2D2",
"Z. c #57AAD5",
"A. c #46B4D9",
"S. c #46B1CD",
"D. c #66A4C6",
"F. c #79ACC8",
"G. c #7CB5C6",
"H. c #7EB4CC",
"J. c #7CB9C8",
"K. c #77AFD5",
"L. c #6BB8D5",
"P. c #72B4D2",
"I. c #7DB3D3",
"U. c #7CBAD4",
"Y. c #74B6DB",
"T. c #75BADB",
"R. c #7CBBDC",
"E. c #7BB5D9",
"W. c #6DBCCD",
"Q. c #44ABE3",
"!. c #51B7EA",
"~. c #69B9E7",
"^. c #75BBE3",
"/. c #77BBE5",
"(. c #60BEF4",
"). c #7EC1DD",
"_. c #7FC2CB",
"`. c #5EC5F3",
"'. c #69C0E9",
"]. c #7DCCEC",
"[. c #77C4E6",
"{. c #7CCEF2",
"}. c #7BD2F5",
"|. c #7BD4FB",
" X c #76D7FF",
".X c #6ED7F5",
"XX c #83B384",
"oX c #83AB86",
"OX c #89ACAB",
"+X c #8BACB8",
"@X c #94ADBB",
"#X c #97ABB7",
"$X c #8DB2BB",
"%X c #88B3BA",
"&X c #92B2BD",
"*X c #98B4B6",
"=X c #93B3A8",
"-X c #A1ADB8",
";X c #A0B0B0",
":X c #81C39F",
">X c #90CBB3",
",X c #85ADC3",
"<X c #8AADC8",
"1X c #88ADC8",
"2X c #92AEC3",
"3X c #9AACC2",
"4X c #9AAECF",
"5X c #84B4C5",
"6X c #8BB4C5",
"7X c #82B9C5",
"8X c #8DBAC4",
"9X c #84B4CC",
"0X c #8AB4CB",
"qX c #83BACB",
"wX c #8AB9CD",
"eX c #92B3C3",
"rX c #92B3CC",
"tX c #96B8C6",
"yX c #83B4D3",
"uX c #8AB4D3",
"iX c #84B9D4",
"pX c #8BB9D1",
"aX c #85BADA",
"sX c #87B7DA",
"dX c #92B5D2",
"fX c #9ABED5",
"gX c #91AED0",
"hX c #8FBEE0",
"jX c #8CCADC",
"kX c #89C7DB",
"lX c #94C4DC",
"zX c #9BC5DC",
"xX c #94CADB",
"cX c #9BCADC",
"vX c #96C6D5",
"bX c #8CC8C9",
"nX c #A5CDDA",
"mX c #85CCE5",
"MX c #8CCBE4",
"NX c #84CDEC",
"BX c #8ACCE9",
"VX c #88C4E6",
"CX c #93CAE3",
"ZX c #9BCAE3",
"AX c #98C9E6",
"SX c #8BD2EB",
"DX c #99D2E5",
"FX c #82CEF3",
"GX c #83D2F2",
"HX c #8AD5F2",
"JX c #A4C7E5",
"KX c #A3D3E9",
/* pixels */
"O   O o .   O . O # . . X X   X   X X % % < 4 3 4 4 i 4 4 4 4 i i i 4 4 4 4 4 4 4 3 1 % % X X   X X   . . . .     O   X     . # ",
"  o   o o     O O .   X $ $ X X $ $ $ % 1 Z c Z c c V v c c c z c c c c v V v c Z j Z 1 % % $ $ X $ X X X @     O   .   X     O ",
"  o o         .     % < < 1 3 1 1 1 1 1 5 z % $ $ $ $ $ $ $ $ X $ X $ $ $ $ $ % % < m 5 1 < 1 < 1 1 3 < < $ X X   o o     + O o ",
".     +     X $ $ < < V C x R M M m m T T T < $ X X + + = = ; = = - : - + + X $ X % T R T m R T T R j R x 1 < X X   X   +     O ",
". . o     @ X % < 4 p l 1 $ X $ $ $ % $ % $ X & *X*X&X3X3X2XeXeX,X2X2X@X2X@X#X*X, $ % $ $ $ X $ & X $ 1 B p 4 < % X @   o o   . ",
". .   +   X 1 c R B B n $ X X   @   + X , , - = @XeX2XgX6X6X6X0X0X0X0XrXrXeXeX@X- - + & + & + X   X $ X n B N C m 1       o     ",
"X X       $ 1 M % % $ % X , ;X#X&XtX&XOX&X&X+XtXrXdXfXzXZXvXvXcXvXvXzXzXzXfXrX2XfX@X+XeX+X&XtX#X*X=X@ > $ $ $ $ M < $ X     @ X ",
"X   .     % 3 C $ X +   = ; #X&X%X6X6XrX6X6XrX<X1XrXzXZXZXzXvXxXvXxXvXzXZXzXdX<X,XrX6X6XrX%X0X6X+X*X; o X X X $ V 3 $ X . . X X ",
"  o .   $ < 4 N % + *X-X3X4X<X1X8X%XcXcXvXcXcXZXfXZXZXCXxXxXxXjXbXG.jXxXlXZXZXAXzXzX0X0X,X0X5X0X7XdX<X4X-X;XX % z i 1 $ . . @ X ",
"o     @ % Z V z % + eX<XgXgX9XiX7XJ.xXcXvXnXzXlXAXZXCXAXxXxXxXxXG.J.CXDXCXCXZXfXZXfX6XwX5XqXG.7XqXF.gX<X2XtXX % c k R $ X .     ",
"O X   $ < M < $ >X$XqXuX0X5XbX_ xXbXvXxXvXvXzXJX1XyX9X9XqXqX5X5X5X5X9X9X9X9XlXZXzXZXzXvX7XqXG.J.J.J.0XdX0X_ vX=X$ < b < X X o = ",
"      $ 1 H $ $ OX%XqX9X,XwX` _.xXDXkXxXzXcXzXcX9XyX9X0X9X9X6X6X6XwX0XwX9XyXzXZXlXzXcXvXqXH.J.J._.J.9XuX9XiX6XOX% X oX2 $   o o ",
"o o o X < Z % X *X@X<XyX6X6XDXjXlXCX9X0XwX0X9X9X9XqX9X9XqX9X5X5X5X5X9X9X9X9X9X5XwX0X9XuX9X9XyXH.H.H.0XuXyXuXeX*XX $ R < $   o = ",
"  +   $ 3 n $ , ;X+X<XgX5X5XAXAXAXAXyX9X0X1X9X9X9X9XH.H.9XyX9X9XwXuXH.9XH.H.U.wX9X9X9X0X9XuXyXyXaXH.uX0X1X6XeX=X, $ T 3 X   o o ",
"X   . * 1 n & - $X8XyXuX0XyXK.sXH.H.9X9XwX9X9XqXyXU.U.E.aXyXyXsXyXyXI.I.R.iXI.H.9X0XwXyX9X9XyXsXF.hX1XuXuXpX` $X+ $ T 1 $ X     ",
"X   . X 1 n + - $X6XuXuXuX1XsXyXyXyXyX9X9X9XU.U.U.T.T.T.T.Y.^.E./.E./.Y.T.T.P.U.H.U.H.H.iXiXyXyXsXyX0X<X9XwX7X%X- X T 1 X .   . ",
"    . X 3 c X = eX%XuX1XyXsX9XaXH.E.I.aXaXK././.c.l.l.l.k.z.l.l.m.m.n.l.l.c.h.g.R.[.P.).R.U.yXyXuXyXuX<X6X0X%X&X+ $ v < X . . . ",
"      $ 3 c X = $X6X6XwXuXyXiXJ.VXF.aXP.^.^./.~.m.m.M.q.B.q.q.M.N.e.N.N.M.m.C.C.~.'.L.~.L./.F.CX9XyXuXuXwX6X6X&X= $ v 1 $   . . ",
"    X X 3 B & - 6X5X7X7X9XyXJ.qXD.).W b.b.V.k.N.N.N.N.e.N.N.B.N.N.e.B.B.N.N.N.C.V.m.z.z.x.W )._ qXqXI.9X7X5X6XeX- % n 3 X X     ",
"      $ 3 x & ; 2X5X7XqXqXH.7XJ.kXL.b.x.k.m.9.e.q.e.e.e.B.e.B.e.N.e.e.e.e.e.Q.B.r.N.M.9.x.b.L.aXJ.7X9XH.7X5X6X&X- & x 3 $   X   ",
"      $ 1 n + : 3X2X6X9XqXqX7XJ.g.C.v.z.k.S.q.t.q.t.q.t.e.e.e.e.e.q.r.w.w.w.i.e.N.Q.M.M.m.l.l.f.5X6X0X9X5X8X2X@X- & n 1 $ X     ",
".     $ 1 m X + 3X3XeX6X9X9X5XwXj.Z.f.z.z.q.9.9.9.q.q.q.e.B.i.e.e.q.w.w.w.r.w.B.2.M.V.V.l.d.D.D.6X6X6X9X6XeX3X#X+ $ m < $ X   . ",
"# . . X 1 b $ + = : eX6XuXuX8 8 w t D.b./ / S.S.M.n.n.n.N.N.e.e.q.q.M.e.Q.Q.Q.N.V.V.x.f.W F.w 8 8 0 0XyXrX3X= =   X H < X     . ",
"# . . X 1 b X X o ; +X0XsXyXt y 0 e ! ~ ~ b.( ( g.v.C.m.m.N.N.q.q.M.M.m.C.C.C.h.g.g.D.~ ^ ^ e y 0 r I.sX0X#X:   X $ b 1 $ X . . ",
".   X X 1 H % X X + 6X9Xj.f.b.g.W D.e r y 8 y t t r D.E v.z.M.m.M.V.l.C.g.j.d t 8 9 8 8 w w ^ ^ j.j.f.b.9XeX+ X X $ H 2 $ X . . ",
"  X X X 1 g < % X + 8XU.h.d.V.C.Z.W r t t y t 9 0 w ~ D.W b.b.f.f.b.g.W j.! w 8 ; q : 7 8 7 j.D.f.C.d.f.U.eX+ X % < g 1 X       ",
"o   X X % m V z $ & J.W.>.2.Q.N.k.V.Z.g.g.g.g.F.) ! e 0 q e 8 q 8 8 q 8 w t ^ ^ _ Q DXxXZXAXVXNXV.Q.9.>.P.%X& $ c Z m % X X   O ",
"  o X X $ 1 4 C % & G.W.K 2.i.i.t.q.M.M.n.l.d.E W W s e e q q 8 q q e r t s W W ( ( mXjXCXCXBXFXn.i.=.P P.7X& % m 3 < $ X     o ",
"= +   X X $ 3 c % - wXT.;.%.6.| } *.w.t.r.q.A.S.S.z.x.E E W W j.j.W g.f.c.l.S./ / ( SXDXCXCXlXFX#.,.%.;.R.wX& $ c 3 $ X X     O ",
"o   . X X X 1 n $ - 9XT.;.%.7.| 5. .i.i.0.p.w.w.r.A.9.V.A.Z.C.v.v.h.Z.V.V.r.A.8.S.x.].jXxXZXAXGX+.{ %.;.T.6X- % n 3 X X     . o ",
"o   . .   $ 3 n $ ; 5XL.;.%.6.6.O.X.| u.5.O.5.{  .<.Q.i.Q.:.B.q.n.M.2.Q.p.Q.6.8.&.P GXBXCXZXlXmX$.{ %.;.Y.,X; % x 1 X X       O ",
"  o     . X 1 n $ ; 9XY.>.,.O.3.5...u.O.6.u...5. .1.i.p.i.p.p.w.r.t.p.a.p.y.y.X.%.>.FXVXAXCXcXSX-.} =.>.Y.9X, $ R 3 $     .   o ",
"          $ 1 n X - 6XT.;.,.6.4.4...4.X.........X.X.X.X. . . .|  . . . . .X. .1.%.;.FXNXAXZXzXBX&.{ *.;.T.9X- $ n 1 $           ",
"    o o   $ 1 n $ - 6XT.;.*...4.......4...............X.X.4.X.4...X.X.6.| X.6. .%.;.FXBXAXCXlXFX&. .*.;.T.6X- $ n 1 $   o       ",
"      o   X 1 n $ - 5XT.;.,.| 6.....| X...............4.4.X...X.| X. . .| ....X.%.;.FXBXCXCXlXNX=. .*.;.T.5X- $ m 1 $   o       ",
"          X 1 n $ - 6XT.P ,.| 4.6...............................X.|  .| 6.....X.1.;.|.BXMXAXCXFX=. .*.P T.5X- $ m 1 X         . ",
"          X 1 v $ - 1XT.;.<. .4.........6...................X.X.X.X.| | X...4.X.%.;.|.NXBXCXCXNX=.*.=.P T.5X- $ m 1 X       .   ",
"          $ 1 n $ - 6XR.P ,.| ....................6.......4.4.| ..| X.| ....4.X.1.;.}.NXAXCXMXFX=.{ *.;.T.5X- $ v 1 $         . ",
"          X 1 n $ - 1XT.;.<.X.4.............X.............X.4.X.| | ......s.4.s.<.;.FXVXAXxXCXFX=.%.,.P T.5X+ $ m 1 $       . . ",
"    o     $ 1 v X + 6XT.;.,...4...............................X.X.X.........X.X.%.I FXMXxXCXxXFX=. .%.;.T.7X- $ m 1 X           ",
"      o   X 1 n $ - wXY.;.,.X.......| X.4.................| ..4...........4... .&.K MXlXxXvXDXNX&.1.*.#.T.wX- $ m 1 $         . ",
"      o   $ 1 C $ , 6X/.2.%.X...........X.4.6.| ..........X.......s.4.4.s...X.%.;.E MXZXnXvXxXNX@. .<.>.T.9X- $ n 1 X X   o     ",
"        X $ 1 C $ - 0XP.;.}  .4...................................s.s.....|  .*. X].xXvXvXcXlXFX:.1.%.P L.qX, $ n 3 $   o       ",
"      o   $ 1 n $ - 6X/.d.,.1.| ............X.....................3.3.s... . .=. XNXjXvXcXZXMXFX@.<.=.>.R.5X- $ m 1 $           ",
"    o     $ 1 v $ + 6XR.K } *.o.........................................| X.*.#.}.mXDXxXxXMXNX}.#.<.J P U.5X+ $ n 1 $   o       ",
"          $ 1 v $ + eXU.E &.*.5.| X.4.......4...................3.......|  .*.#.|.NXxXxXjXMX]. X=.<.#.I U.6X+ $ v 1 $         . ",
"  .       $ 1 V $ + 2XU.~.`.,.} | 6.......6.X...................s.s..... .,.*.#.}.mXMXDXBXNXd.;.@.=.`.~.iX%X+ $ v 1 X       .   ",
".         $ 1 v $ + $XG.^.'.@.0.X.......X.| ....................s.o.s.o. . .-.P {.HXmXMXNXFXP &.:.@.'.^.F.*X& X v 1 $       . . ",
".         X 1 m X +   q I.~.2.1. .....| | X.X.| ..| 6.3.3.......s.o.s.4.| { $.I ].HXNX}.P #.@.=.&.d.~.K.q   + X v 1 X X X   . . ",
". .   X X $ 1 M X X + + 6XVXJ %.X.| .... .X.X.| ..| 6.3.........o.y.u.4.6.Y I I ].{.}. X&.{ ,. .=.J hXgX+     X b 1 X       . # ",
".   X X X $ < T $ X X + 5X_.K =.o.s.s.s.X.o.s.| ....3.O.3.3...4.4...| } =.P }.GXGX}.;.-.{ X.o.6.8.L U.0X+   X $ m < $ X X   . . ",
"    X     $ < b < $ X   $XJ.U L 1.X.X...s.s...s.X.4.X.4.....3.o.4.4.6.{ ;.I NXNXGX}.P *.| 5.| } L U J.%XX X % < T < X X X X   . ",
"        X X 2 b k A % X $XwXmX~.=.1. .X...3.3.3.4.X.s.1.y.X.X.X.o.} =.:. X].SXmX].}.$.8.o.5.o.0.`.[.7X$XX % V k M 6 X X   O     ",
". O . .   @ X < i l % X =X_ E.~.#.*.{ X.3.3.3.3...X.1.1.X.y.y.1.0.} $.K [.SXBXSXGX|.&.}  .X.} &.'.Y.F.+XX % k i < X $ .   . . O ",
". . . . .     * 3 A $   ; 0 sX^.P 8.{ { ..| ..| ..|  . .X.X.1.o.-.L  XGXSXMXjXMXQ K #.2.%.,.8.J L.sXr ; X $ z 3 & X         . . ",
".       X     X 3 v $ X o 7 gXyXI L L -.*.{  ...X.| |  . .X.X.{ L I ].NXCXjXCXBXI K 2.%.:.@.>.I E.dX7 o X $ v 1 X o X   o   . . ",
"      X       X < v % X   = 3XrXE.[.~.!.:.} 0.{ { *.{ { 7.O.6.7..XHXVXBXzXDXCXmXI P J 2.(.~./.yXdX#X:   X % v < X               ",
"              X < m < $ X o -X#XrXiXR.Y.d.I #.#.#.:.@.=.8.6.O.7..XSXAXZXfXZXCXBXI P ;.>.~.E.uX6X#X*X  X $ < H < X       X       ",
"= o o   o     X % Z h z % X X + > ; 0XbXP.T.^.^.^.^.~.~.P @.0.-.HXAXAXZXJXzX9XU.T.[.^.K.aX5X, & X X X < c j v % X X         o O ",
"= o o       X X $ 1 i h % % % $ % & *X$X+X5X0XuX9XH.hXT.U >.L I HXpXJXJXfXnX%X6XwX9X9X5XeX*X< < % % % % h i < $ X       o o = O ",
". .             X X < n XXv c z C x 1 X X + + - - u ` ` kX_.'.'.jXDXvXnXOX%X$ & X + - + X < z V z c b XXn < X X             . . ",
"    .             X % % % < 3 4 i N < % $ $ X % < % :X[ ] ] ' ] >X>X>X>X=X>X% < % $ X $ % < N 4 4 3 < % < $ X             . . . ",
"X     . .         + X X $ X X $ 1 A c C n C N k l l i i 3 p p 4 a i p 3 4 3 k l l c Z m R c k 3 % X $ $ X + o           .     X ",
"X X . . . .       o +   X   X X % 1 3 3 4 i i p a f G D f f l S S F f l F F D a p i 4 3 3 3 1 < $ X   .   + =         .   .     "
};
