/* XPM */
static char *col521723561844[] = {
/* columns rows colors chars-per-pixel */
"64 64 245 2 ",
"   c #010202",
".  c #0A0103",
"X  c #000C01",
"o  c #02030A",
"O  c #09020B",
"+  c #000B0C",
"@  c #0A0A07",
"#  c #001300",
"$  c #001B00",
"%  c #00130D",
"&  c #071807",
"*  c #010412",
"=  c #000B12",
"-  c #010D1B",
";  c #070515",
":  c #011313",
">  c #00151A",
",  c #12000A",
"<  c #002400",
"1  c #002C00",
"2  c #072908",
"3  c #003301",
"4  c #003B01",
"5  c #003C0A",
"6  c #00221E",
"7  c #000D2C",
"8  c #000B25",
"9  c #001526",
"0  c #00132B",
"q  c #00192D",
"w  c #001433",
"e  c #001A35",
"r  c #001539",
"t  c #001B3A",
"y  c #000F31",
"u  c #004300",
"i  c #004904",
"p  c #005400",
"a  c #006000",
"s  c #001D45",
"d  c #002343",
"f  c #5ABE58",
"g  c #67BB5C",
"h  c #5EBA64",
"j  c #5FAF66",
"k  c #69AD6D",
"l  c #75AA6E",
"z  c #62B56B",
"x  c #6AB46D",
"c  c #6CAD73",
"v  c #6BA577",
"b  c #74AC74",
"n  c #7AAB75",
"m  c #75AC7A",
"M  c #7AAC7B",
"N  c #77A477",
"B  c #6CB373",
"V  c #6BB477",
"C  c #72B374",
"Z  c #72B27C",
"A  c #7CB37C",
"S  c #7AB177",
"D  c #4CC752",
"F  c #61C466",
"G  c #83B37B",
"H  c #3788A8",
"J  c #278BBC",
"K  c #348DB9",
"L  c #2995BA",
"P  c #3894BA",
"I  c #3592A9",
"U  c #3B8C9F",
"Y  c #7AAD82",
"T  c #79B283",
"R  c #4998BA",
"E  c #539CBD",
"W  c #5A98B9",
"Q  c #438FAC",
"!  c #6C9BBB",
"~  c #659AB8",
"^  c #57A2BF",
"/  c #79B6B4",
"(  c #72AFB6",
")  c #79C09E",
"_  c #75C2AE",
"`  c #0C98CE",
"'  c #1597CC",
"]  c #1D9ACE",
"[  c #1D94CB",
"{  c #0E98D5",
"}  c #169DD5",
"|  c #1C9CD5",
" . c #169EDA",
".. c #1A9BDB",
"X. c #1796D4",
"o. c #2D96C4",
"O. c #259AC6",
"+. c #2395CC",
"@. c #239ACC",
"#. c #2B9ACC",
"$. c #2995C6",
"%. c #3394C4",
"&. c #3898C8",
"*. c #239BD3",
"=. c #239DD9",
"-. c #2898D4",
";. c #389AD2",
":. c #208EC3",
">. c #0FA1DA",
",. c #0EA2D4",
"<. c #12A1D5",
"1. c #1BA1D4",
"2. c #13A1DB",
"3. c #1AA1DD",
"4. c #14A3CC",
"5. c #37A6CD",
"6. c #28A4D8",
"7. c #3DABD3",
"8. c #3DAADB",
"9. c #37A9D9",
"0. c #3AB3DB",
"q. c #29A1CC",
"w. c #159DE3",
"e. c #189CE5",
"r. c #1BA2E3",
"t. c #26A6E2",
"y. c #3BAAE2",
"u. c #36A8E2",
"i. c #38B3E5",
"p. c #4C9DC6",
"a. c #539CC3",
"s. c #5C9CC2",
"d. c #569DC7",
"f. c #4B9ED0",
"g. c #639EC5",
"h. c #4DA5CC",
"j. c #44AACB",
"k. c #49A6C9",
"l. c #54A2CC",
"z. c #59A4C8",
"x. c #45A6D3",
"c. c #4BA5D3",
"v. c #43A9D4",
"b. c #44A6DB",
"n. c #41A9D9",
"m. c #4BAAD7",
"M. c #53A7D4",
"N. c #46B2DA",
"B. c #51B2DF",
"V. c #66A3C5",
"C. c #75AAC6",
"Z. c #7EB3C5",
"A. c #7DB5CC",
"S. c #7EB9CC",
"D. c #77B5CA",
"F. c #6CB8D8",
"G. c #7EB5D2",
"H. c #74BBD5",
"J. c #7CBAD3",
"K. c #75BADB",
"L. c #7BBBDB",
"P. c #76B4D9",
"I. c #71B0D2",
"U. c #42A8E2",
"Y. c #49B0E4",
"T. c #6ABBE4",
"R. c #69B9E8",
"E. c #76BBE6",
"W. c #62BEF1",
"Q. c #74C2DC",
"!. c #68C0EF",
"~. c #78C3E4",
"^. c #7BCCF4",
"/. c #78D5FB",
"(. c #71CFF3",
"). c #5CC5F4",
"_. c #82B285",
"`. c #81AB83",
"'. c #99ADAB",
"]. c #88B5A9",
"[. c #97B5AD",
"{. c #8DADBB",
"}. c #88AEB8",
"|. c #93ACBB",
" X c #98AEB6",
".X c #8DB2BD",
"XX c #87B5B8",
"oX c #92B3BD",
"OX c #97B7B6",
"+X c #8FAEA9",
"@X c #A3ACB5",
"#X c #83C39E",
"$X c #84AEC4",
"%X c #84AECA",
"&X c #8BAECA",
"*X c #8BACC6",
"=X c #93ADC4",
"-X c #98ACC5",
";X c #84B4C5",
":X c #8BB3C5",
">X c #84BAC6",
",X c #84B5CB",
"<X c #8AB3CC",
"1X c #82B9CC",
"2X c #8AB9CC",
"3X c #8AB9C3",
"4X c #92B2C3",
"5X c #92B3CC",
"6X c #97B9C6",
"7X c #86AED0",
"8X c #84B4D1",
"9X c #8AB4D2",
"0X c #84BAD2",
"qX c #8CBAD2",
"wX c #83BBDB",
"eX c #89B9DA",
"rX c #93B7D5",
"tX c #A2B4C6",
"yX c #82BEE0",
"uX c #83C6CA",
"iX c #99C2CC",
"pX c #8CC4DB",
"aX c #8AC8DA",
"sX c #9CC5D5",
"dX c #9CC9D6",
"fX c #94C4DB",
"gX c #9AC6DD",
"hX c #95CADD",
"jX c #99C9DD",
"kX c #92C6D6",
"lX c #A3C6DA",
"zX c #A6C4CE",
"xX c #8BCBE5",
"cX c #8BCDEB",
"vX c #88C6E5",
"bX c #96C6E1",
"nX c #94CBE4",
"mX c #9BCBE2",
"MX c #98CBE7",
"NX c #87D2E9",
"BX c #95D3E6",
"VX c #86CDF1",
"CX c #86D4F6",
"ZX c #95D3F4",
"AX c #A1CEE8",
/* pixels */
". . .       X   . . .       X     X X # $ 1 3 3 4 4 4 4 4 u u u u u 4 4 4 4 3 4 3 3 1 $ $ X X X     X   .                 X . , ",
".     X       X .   X X X # X # # # $ $ 1 A k A m n M m m b C C c C b b m m n n A l A < $ $ # # # X X @ X #     O     + X   . O ",
"  O X   o o     X X $ < 1 2 3 1 $ < 1 3 5 m < $ $ # # X X X X # # # # % # # # $ $ < b 5 1 1 1 2 1 1 3 < < # #       o     o O O ",
"O     o     X # X < < Z T v T N Y Y M M A M < # # X = = = = = = * + = * = + + # # < M A A M Y N N T v Z B < $ # #       + o     ",
". O   o   @ X $ < 5 i k < # X & & # # # $ # X %  X X|.=X=X=X4X:X4X4X=X5X=X=XoX'.% # # $ # $ # # & X # 1 z u 4 $ $ X @ o + o   o ",
"O .   X     < m T V V c # X X o   + + X % % : : oX4X=X5X<X<X,X;X:X:X<X&X<X5X4XoX= : % % X +   @ + X % # Z B Z G n 2     X   o   ",
"  X     X # 1 N $ # # <   + '. XoXtXoX{.oX}.|.6XzXlXrXgXdXrXqX1X;X;X;X,X<X<X<X<X6X:X.X4X}.oX6XoX+X[.@ X $ # X # N < #       X X ",
"X   X X   $ 1 T # X #   + - oXoX:X<X*X4X:X:X5X$XgXgXmXmXmXhX0X;X1X>X,X1X,X9X8X<X$XqX;X,X6X$X<X}.OX}.> * o X X # n 3 $   X . X X ",
"o o   X $ < 4 Z $ X '.OXtX-XrXC.jXgXjXlXfXdXlXmXmXbX0X,XA.S.J.A.>XS.,XS.1XG.8X8X8X,X,X,X;X,X;X;X$XrX-X-X X'.% $ x u < $ . .   X ",
"o   . # # G B Z # % 6X=X-XrXC.vXnXhXhXmXdXmXmXbXbXrX0X8X8XJ.S.S.S.S.S.S.G.G.8XG.8X8X8X,X,X,X,X1X2X%X7X&X5X6XX $ Z k T $ . .     ",
"*     # < N $ # OXXX1X,XrX:XjXuXaXhXbXhX<X%X;X;XqX2X,X0X1X0X8X9X,X,X,X1X8XG.8X8X,X8X,X,X1XS.,XS.Z.1X%XrX9X( iX#X# 1 N $ &     ; ",
"* o   X 2 `.# # ].XX0X8X%XqXkXBXhXBXhXhX9X;X9X9X%X,X,X,X,X%X,X<X,X<X,X,X,XS.,X,X8X8X8X8X1XS.S.S.uX>X%X9X8X0XXX].& # `.2 X   o O ",
"* o + X < T #   [.}.7X7X%X9XfXpXhXfXZ.,X,X9X,X,X,X,X1X1X1X,X;X,X<X;X,X,X,XS.,X,X,X9X9X8X,X8XG.S.A.,X9X9X8X9X4XOXX # Y 1 X o o o ",
"o O   X 1 T # : OX}.rXeX9X<XMXmXmXBX,X,X,X9X,X,X,XS.1XS.1X1X8X,X,X,X1X1X,XS.1X,X,X9X9X7X8X8X8XG.wXC.<X<X%X&XoX+X: % m 1 $     * ",
"      & 1 Y # X [.XX9X7X,X$XmXfXkXdX;X,X<X,X,X2XZ.Z.S.S.J.S.8X8X8XG.1XA.D.S.1X1X,X8X9X8X,X8XS.8XA.yX$X9X7XeX/ OX=   Y 1 #       ",
"X   . X 1 Z % % XXXXqX8X9X&XmXmXhXjX;X,X,XA.S.D.Q.Q.F.K.K.K.K.H.E.K.K.H.H.H.H.G.G.8X8X8X8X,XS.S.wXA.,X<X8X0X3XXX* % M 1 X X   X ",
". . . X 1 n X + oX}.,X<X%X9XjXhXmXkX1X1XS.D.H.K.l.k.k.x.x.j.v.x.j.k.j.x.j.h.l.d.E.E.P.wXwXG.wXD.G.A.2X,X,X8X,X.X= % C 1 #       ",
"      # 1 n % = 4X6X;XqX9X7XmXkXhXhXD.D.aXF.Q.!.c.f.x.b.7.8.8.8.7.7.v.7.v.b.x.c.R.E.E.P.P.L.C.vX,XA.,X1X8X8X,X*X+ # n 1 #       ",
"      # 1 m # = .X;XZ.>X,X,XhXhXhXbXaXcXz.l.p.x.b.b.U.b.b.b.7.7.7.7.v.n.n.b.b.b.m.f.m.M.z.E yXC.1X,X9X,X<X9X&X=X* X S 1 X       ",
"      # 3 C % - }.3XZ.S.,XS.kXkXhXBXcXxXz.R M.x.b.U.y.U.b.b.b.v.7.8.8.n.b.b.8.7.8.9.n.j.h.z.F.yXZ.<X,X<X9X%X:X|.+ X m 1 #       ",
"      # 1 m % = -X=X;X>X,X1X>X>XW g.vXcXCX/.k.7.n.8.y.y.y.8.n.n.y.y.y.8.8.8.8.9.7.7.7.j.c.h.l.g.7XrX:X,X<X&X-X-Xo X n 1 #       ",
"      # 1 M % * tX-X:X;XZ.,X;X,X! I.yXVX~.(.c.x.n.8.8.y.9.8.n.n.y.y.y.b.8.b.7.7.5.7.j.j.h.a.M.V.&X&X*X<X<X*X-X X+ # M 1 #       ",
". .   # 1 M X o * * 4X;X0X9X0 0 7 y ( V.V.z.M.c.b.8.n.n.n.v.7.7.8.7.b.b.b.c.x.x.N.j.j.k.z.V.r w w 0 lXdXlXlX- = X # M 1 #   O   ",
".     # < N X X o - {.;XeXP.r r w w ! ~ W V.W z.l.l.c.c.x.v.7.7.7.v.x.c.l.M.l.z.z.^ z.W ~ ! r q 7 7 lXsXsXlX* + X # n < #       ",
"O     # < A # X X = .X1XW d.d.g.W C.w e 7 8 0 w w s g.l.M.m.x.b.b.m.c.M.a.g.s r r y y y r t ! ~ lXsXsXdXlXzX* X # $ _.1 X X   O ",
"  +   # 1 b < $ X = 3XL.p.f.c.f.M.g.r w 0 7 q 8 w 0 ! W E z.l.d.d.d.z.W g.! w 7 7 w y y r t ^ ! bXsXdXdXdXzX+ X $ 1 N 1 X X     ",
"o   # # $ n n n # % >XH.p.;.U.U.b.B.M.M.a.z.W ( ! ! e 0 8 w 0 q 0 9 q 9 q w ! g.C.s.V.z.d.M.l.k.nXgXdXdXsXzX+ # N S `.$ #     O ",
"o o   X $ 1 3 n $ % XXF.K -.u.u.U.y.8.n.v.k.k.E W ~ t r 0 e 8 q 9 9 0 e e d W E p.p.c.v.n.b.7.M.cXgXkXdXiXzX+ # A 3 < # X   X   ",
"o o . X X $ 3 n # % ;XK.%.-.6.=.-.-.9.i.5.7.j.j.j.k.l.p.E s.W g.V.E a.R p.R j.j.j.N.7.5.8.9.O.K cXhXkXsX6X6X+ # b 3 $ #     O   ",
"      @   # 1 m # = <XK.%.+.1.<...X.9.u.5.i.9.8.7.N.5.n.B.M.h.c.M.c.M.B.x.5.N.7.0.9.0.6.0.9.O.&.VXnXhXdX4X|.+ X B 3 #     X     ",
"O o   .   # 1 T # - ;XF.%.] 1.<.' ..| t.3.' | X.6.=.y.y.9.q.7.7.7.n.#.U.8.U.q.6.] 1.' 3.3.| =.:.VXcXbXgX5X|.+ # C 3 #       o ; ",
"    .   X # 3 m # > ;XP.&.+.} {  . .r.X.2.3. .e.....t.i.u.9.i.9.9.i.u.u.Y.u.-.| .. .3...{ 3.X.;.VXnXgXmX*X{.= # B 3 #     . o . ",
"          # 1 m # = ,XK.%.*.1.2.2...2... .2. ... .....} <.| | } } } ....} | =.......w.X.r. .=.$.VXbXmXgX<XoX+ # n 3 #           ",
"    o o   X 3 m # = <XK.%.@.<.2.<.2. . .....2. .2...2... ...2.}  ... . . .} .... . .w. .} ..] o.cXbXjXgX,XoX+ X n 1 #           ",
"      o   X 1 m # = :XK.%.*.} 2. . .}  .2. .2. . . ...2. . . ...e... . .} ......t.X. . .} 6.+.%.cXhXjXjX<X4X+ # n 1 #           ",
"          # 1 m # = :XK.%.@.} 3.2...2... . ... . . .2.} 2... . ....... . .} ..| ..} 3.} | [ #.K cXgXjXgX;XoX= X n 1 #           ",
"          X 1 m # = :XK.K *.| 2.2. . . .2. . .<... . ...<. ... ...e. . ......... . . .' 4.] /.CXnXgXbXjX<XoX+ # n 1 #           ",
"          # 1 n # = :XL.%.*.} 2. . .<..... . ...2.}  .2...2.2....... . .2. . . .X. .3.] q.:./.VXnXgXbXdX,XoX+ X n 1 #           ",
"          X 1 m # = <XK.%.@.} 3... . ...2. . .2. ...2...2... .} .... . . . . .w.w.3.3.] q.L /.NXnXgXgXjX:XoX+ # n 1 #           ",
"    o     # 1 n # = :XK.%.*. .2.2. . .2...}  ...2.<...2...2. . . . . .2.2.2. . . .} 3.] O.P ^.cXnXhXbXgX,XoX+ # n 1 #           ",
"          # 1 m # = 2XK.%.*...2. .}  . . . . .2. . .2...<... .....}  .,.>. . .w.w.{ r.3.$.%.VXcXbXhXjXjX<X.Xo # n 1 #           ",
"      o   X 1 m # = <XK.&.+. .X.3. . . ...2.} ..2.....2.2. . . . . . .,.,. .>.w.w.w.X.} :.K VXcXbXgXjXjX,X4X+ # n 1 #           ",
"          # 3 m X : <XP.%.+.| 3. . . . .<...2... . .2.......<.2. .>.2.,.<.>. . .r.e. .| #.R VXbXmXfXgXjX;XoX+ # n 3 #           ",
"      o   # 1 Z # = ;XL.&.-.6.{  . . .}  .2...2.} 2...2.2. . ... . . .<.<.2. . .w.{ ..=.J K ZXcXgXfXmXjX;X.X+ X n 1 #           ",
"    o     # 1 n # + :XJ.K :.| } }  . . ... . ... .2..... . . .w. . . .>.<.} ....w.r.X.+./.CXpXbXbXhXbXjX<X.X+ # n 1 #           ",
"          # 1 S # + 6XP.%.o.@.6... .2. .2. . .2. . .2.}  . . . .w.w. .} } } } ....X.=.O.(.CXnXmXgXgXhXsX;XoX+ X n 1 #           ",
"          # 1 b # + .X0XE.).#.' } 3. . . . .}  . . .2.....2. . .w.w.w. .} | | | ....*.O./.NXpXkXgXhXqX<X;X4Xo # n 1 #           ",
". .       # 1 n X % |.C.E.!.:.6. .<. .} .. . .3. ...<.2. . . ...w.w.w. .} *.| *.=.*.] L /.VXhXgXmXbX<X;X:XOXo # n 1 #       O   ",
". .   o   X 1 n X o   9 G.R.;.-. .2. . . .w. ... . .w. . . . .w.e.e.w. .| | | *.*.+.#.o./.ZXfXbXeXAXeX5X-   @ X n 1 X   +   O . ",
". . X     # 1 n # o + + <XyXK -...2. . ......... . . .>. . . .w.e.e. .2.} ..X.| =.-.%.%.^.cXnXMXZXvX%X=X: +   # G 1 #   o X O . ",
"X     X X # < M # X   + .XH.K O.} .. ....... .e. .2.,. .<.<.<.} } } ,.4.,.<. ...-.;.^.CXcXvXBXvXU E A.*X+   X $ l < # X       . ",
"      X   # $ Y < # X X XXD.I o.@.| .... .w. . . . .<.} <.<.<.} <.} 4.,.,.>. ...-.%.^.cXxXxXcXCXI I >X4X+ X # < N $ X X X       ",
"  O .     # 2 m x B < X XXS.~.!.$.*.| } >.>.>. . .} ..| *.| X...} } <.<.>.w.r.w.-.#.VXxXBXaXQ H Q.Z.XXoX+ # B V M 2 X     O     ",
".   .   . # X < u z $ X +XXXL.T.%.O.@.|  .>.>. .2.....*.=...=....... .<.>. .w.} +.J ~.NXxXcXP Q H.2X:X'.+ < z u < X X . . O     ",
"  . .       X $ 3 x $   - w eXP.P O.@.| }  . . . .......X.......e.=. . . .....#./.NXBXaXcXcXH P G.<X8 =   $ k 4 & X     O ; o   ",
"        X   o X 1 n # X   8 rXG.P L o.O.*.| |  ...} } ........e.=.e.....} | O.L /.xXjXhXMXvXR Q eX&X8 O   # S 1 X =     o     o ",
"              X 1 n $ X   * -X5XG.E.R.W.-.:.=.| *.| | 6.<.` r.,.X.r.' ..1.4.L I xXBXfXrXvXG.wX8X5X5X; o X # n 1 X               ",
"      o       X $ G < # X o @X|.5XeXE.P.p.%.&.o.o.%.:.#.q.1.` ,.| ' *.*.] L P U hXAXmXmX7XZ.XX5X|.|.+ # $ < A < X               ",
"* o o   o     X $ n k b <   X + + > 3X1XC.K.E.K.E.E.T.R.:.$.6.| +.6.+.+.).T.Q._ jXlXrXfX<X6X: # X % X $ b k m $ #             . ",
"O O o         X # 1 u c $ $ $ # $ $ [.OXXXXX:X,X$XZ.pXL.H %.$.O.&.$.o.J T.vX<X4XiXlXlXsX.X].< < $ # $ $ k u 1 # X           O O ",
". . O   O       X # < m _.G l c C B 1 # X X + + % 6 / / aXQ.Q.Q.F.Q.F.NXS./ >   + o : + X < c B c N N G n 1 # X             o o ",
"                    # < $ < 3 3 u x < $ # # # $ < < #X/ _ _ ( _ Q.( _ _ / ].$ < $ # # # $ < Z u 5 3 < $ < #   .               o ",
"X   . . .         o X # # # X # 1 l c A Z Z B k z z u u 3 i 5 5 u 4 i 4 i i F h z B C M m m l 1 # X # $ # X o o                 ",
"X   . . .         o +         # $ 1 4 3 4 u u i p f F f h h x F z f g g f D D a p u u 3 4 4 1 $ % o   X   o O ; . .             "
};
