/* XPM */
static char *wall11723392980[] = {
/* columns rows colors chars-per-pixel */
"128 128 13 1 ",
"  c black",
". c #010101",
"X c #020202",
"o c gray1",
"O c #040404",
"+ c gray2",
"@ c #060606",
"# c gray98",
"$ c #FBFBFB",
"% c gray99",
"& c #FDFDFD",
"* c #FEFEFE",
"= c white",
/* pixels */
"      O ================  O ==  ==  ==========          =$  ==    ====  ==========        ========  ==  ==  ==  ==    ==  ====  ",
"        ======$=$=======    ==  ==  ======$===          ==  ==    ====  ==========        ========  ==O =$  ==  ==    ==  =$==  ",
"   O  ====  ====  ====      $=====            ==O ==  ====O ==========        ======  ====    ==  ==  $===========  ==  =$===$==",
"      ====  ====  $===      ======            ==  ==  ====  ==========        ======  ====O   ==  ==  ============ O==  ========",
"    ======  ====     O======  ======    ==    == O  ==  ==  ==  ======  =====$==    ==  ==$=  ==============  ==========      ==",
"    ======  $===      ======  ======  O ==   O==    ==  =$  ==  =====$  ========    ==  ====  =============$  ==========      ==",
"  =====$  ==  ====      ==  ==   O                    ====================    ====  ==      ==========  ==O       ====  ====$===",
"  ======  ==  ====     O==  ==       O                ======$=============    ====  ==      ==========  ==        ====  ========",
" O====  ==========  ==  ====              ==      == O======  ==  ==========  ==          ========  =======$==  ===$===========$",
"  ====  ==========  ==  ====              ==  O  O==  ======  ==  ==========  ==    O     =$======  ==========  ====$=====$=====",
"    ==  ===$==  ========  ==      ==        ==          ==  ==  ======                ==  ===$  ====  ===$==$====$=======$====  ",
"    ==  ======  ====$===  ==      ==  O     ==          ==  ==  ======                ==  ====O ====  ========================  ",
" O$===  ====$=    ====    ==      ==         O        ====  ==========          ======   O      ==    O   ======================",
"  ====  ======    ====    ==      ==                  ====  ==========        O ====== O        $=     O  ======================",
"    ==    ====$=  $=  ======     O  O     O       O O =====$===$===$==  =$==                ========      ====$=  ==  ====  ==$=",
"   O==    ======  ==  ======           O              ====$===========  ====                ========      ===$==  $=  ====  ====",
"  ==  ====  ============        ==      ==  ==      ==  ====  ===$========  ==            ==  ==========    ============  =$=$==",
"  ==  ====  $===========        ==      ==  ==O     ==  $===  ======$=====  ==   O   O    ==  ==========    ==$=========  ======",
"  O     ===========$==  ==    ==     O              ============      $=    ==    O ======  ==    $===   O  $=====  ==  ====  ==",
"      O ==$===$=======  ==    ==            O   O   ============      ==    ==      ======  ==    ==$=      ======  ==  ====  ==",
"          ===$======$=  ====        ==            O   ========  ===$===$$=    ==        ==  O   ===$    ==========$===  ========",
" O  O     ============  ====      O ==     O  O       ===$====  =$========  O ==        ==      ====   O==============  ========",
"  ==  O     ====  ====$===  ====      O  O  ==      ==$======$==============  O     ==      =====$====        ======  ====  ==  ",
"  ==        ==$=  ========  ====            ==      =$=====$=========$======        ==      ==========        ======  ====  ==  ",
"    ======    ==    O     =$  ====                    ==  ======  ========        O O O   ==    ====       O==  ==    ==  ======",
"    ======    ==          ==  ====        O   O       ==  ======  ========       O        ==    ====        ==  ==  O ==  ===$==",
"  O   ==  ======   O============                O ==    ======$===    ========  ==      ========$=====   O  ==      ==  ========",
"  O   ==  ======    ======$=====    O O O    O    ==    $=====$===    ========  == O    ==============      ==      ==  ========",
"          ==    ==  ====    ==    ====  =====$====    ====  =$=$======    ==$===      ======    ====          ==  ============  ",
"   O      ==    ==  ====  O ==    ====  ====$=====  O ====  ======$===    ===$==      =====$    ====     O    ==  ========$=$=  ",
"==  ====  == O==  ==  ==  ====  ==  ==    ================  =======$=$  ====    ======  ====  ==   O  ==  == O        ==  ==  ==",
"==  ====  ==  ==  ==  ==  ====  ==  ==    ================  $=========  ====    ======  ====  ==      ==  ==          ==  ==  ==",
"      ====  ================       O  ==================     O==============     O  O   ==    ==      ==   O==  ==    ==      O ",
"    O ====  ===$=$===$======          ======$======$=$==      ==============O           ==    ==  O   ==    ==  ==    ==        ",
"  ==      =$==  ==          ====    ==$=    ==  ==             O  ==  ==                    ====         O O====      =$   O    ",
"  ==      ====  ==          ====   O====    $=  ==         O      ==  ==            O       ====            ====      ==    O   ",
"==      ====  ==O =$========      ======    ====   O    ======                  ==          ==           O        ======    ==  ",
"==      ====  ==  ==========      ====$=    ==== O  OO  ======       O          ==O         ==   O  O       O   O ======    ==  ",
"==          ====      ==  ==  =======$====  ==     O    ====  ====O O       ====    =$==   O==O   O   O     ======    ========O ",
"==   O      ====      ==  ==  ============  ==          ====  ====        O ==$=    ====    ==  O           ======    ========  ",
"==  ==  ======$=====          ==  ==  ==  ====    ====  ========          ======  ======     O      ==          ==        ==$===",
"==  ==  ========$===          ==  ==  ==  ===$    ===$O ========          ======  ====$= O O      O ==       O  ==        ======",
"====  =====$==$=========  ====$=  ====  ==    ====$=        ======    ====    == O==  ==     O==  == O   O          ========$=$=",
"====  =============$=$==  $=====  ====  ==    ======        ======    ====   O==  ==  ==      ==  ==                ==$=========",
"  ===$=====$=$  =$== O======  ==========  ==  ====$=      ==        ==  ====    ==    ====  ==    ==  ==      ==  ==  ======  ==",
"  =$==========  ====  ======  =========$  ==  ======      ==  O     ==  ====    ==    ====  ==  O ==  ==      ==  ==  ======  ==",
"    =====$=$==========  ==  ====  $===  ==  ========OO============  ======== O$=====  ======     O==   OO ==  O     ==  =$==  ==",
" O  ==$===============  ==  ====  ====  ==  ========  ============  ========  ======  ======      ==      ==        ==  ====  ==",
"      ======  ==========  ========    ==  ======   O  ====      ==  ====  ====  ======    ====        ==        ====  ==  ======",
" O    ====$=  ====$====$  ========    ==  ====$=    O ====      ==  ====  ====  $===$=    ====        == O  O   ====  ==  $=====",
"====    ==    ========  ==  ==  ==  ==  ==  ======      ==  ==  ====  ====      ====  ======    O ==  O   O   O     ==========$=",
"====    ==    ====$===  ==  ==  ==  ==  ==  ==$===    O == O==  ====  ====      ====  ======     O==                ===$========",
"  ====  ==========  ==  ==  $===  ====  ==============$=$$  O     ==    ==  ==    ==  ==  ======     O     O  ==  ========    ==",
"  ====  ===$======  ==  ==  ====  ====  ==================        ==    ==  ==    ==  ==  ===$==              == O========    ==",
"          ====  ==  =====$==========  ====          ==  ======  ====      ====  ==  ==    ====$=   O      ====  ====  ==  ======",
"   O      $===  ==  ======$=========  ====          ==  ======  ====      ====  ==  ==    ======          ====  ====  ==  ======",
"  ==        $=  ====  ====  ==  ==  ======  ====    ==  ==  O ==       O    ==    ==      ==$=======      ==    =$==  ====  ====",
" O==     O  ==  =$==  ====  ==  ==  ===$==  ====  O ==  ==    ==   O      O ==    == O    ========== O    ==    ====  ====  ====",
"========  ========    ==O       O   ========  ==     O O==    ==O        O    ==  ======      ====    O   ==  ==  ==  ==  == O  ",
"==$===$=  ========    ==            ========  $= O      ==    ==  O           ==  ======      $===        ==  ==  ==  ==  ==    ",
"    ==  ====        ==        ==    ==  =$======    O      O==    ==          ==  ==        ==========       O      ====  ==    ",
"    ==  ==$= O      ==        ==  O ==  ====$===  O    O    ==    ==    O O   ==  ==     O  ======$===              ====  ==  O ",
"======  ======    ====  ==== O==    =======$==   O    O         ==  ====           O      ==    ==     O==        ==O        O  ",
"======  ======    ====  ====  ==    ==========                  ==  ====                  ==    ==      ==O       ==      O     ",
"====  ==========  ==    ==        ======        ======        ====    ======  ==      O ========          ==  ==  ====     O  O ",
"====  ===$======  ==O   ==        =$====        =$====        ====    ===$==  ==    O   ========   O  O   ==  ==  ====          ",
"==  ====  ==  ==      ==  ==    ==============    ==  O     ====O       ==    ==  O   O ======      ==  ==$===      O   ==     O",
"==  ====  ==  ==      ==  ==O   ==============    ==    O   ====        ==    ==  O     =$=$==      ==  ======          ==      ",
"      ==  ====        ==    $========$  ====  ========    ==    ==    ==========      ==  ======  ==  ==     O            ==   O",
"      ==  ====O       ==    =========$  ===$  ========    ==    ==O   ==========  O   ==  ======  ==  ==                  ==    ",
"    O O     == O======    ======    ==============$=     O  =$== O$=   O==      O  O    ==  =$=$      ====  ==          ==O     ",
"  O         ==  ======    ======    ==$=============  O     ====  ==    ==              ==  ====      ====  ==       O  ==      ",
"  ==  O     ==    O  O==   O==O ======  ====  ======    ======  ==      == O      O  O  ==  ====  ==  ==    $=                  ",
"  ==        ==        ==    ==  ====$=  ====  ==$===    ======  ==      ==         O    ==  ==== O==O ==    ==        O         ",
"==  ======        O ====  ==      ======   O==  ======      ======  ==  ==  ==    O   ==  ===$    ==      ====    ==    ==      ",
"==  ======          ====  $=      ======    ==  $=====  O   ==$===  ==  ==  ==     O  ==  ====    $=      ====    ==O   ==   O  ",
"  ========    $=======          ======  ==    == O  ==      ==    ==  ==    =$    O     ==  ==      ==      ==  O     O ==O     ",
"  ========    ========          ====$=  ==    ==    ==      ==    ==  ==    ==        O ==  ==      ==      ==          ==    O ",
"  ====  ==O   $===O     ==    ======  ======  ==    O         ====  ====   O  O O         ==  $========$  ==  ====O     ==  ==  ",
"  ====  ==    ====      ==   O======  ======O == O            ====  ====              O   ==  ========== O==  ==== O    ==  ==  ",
"==========  ======    ==          ==      ==  ======       O======    ======     O   O      ======  ==    ====    == O==        ",
"=========$  ===$==    ==   O      ==   O  ==  ======        ====$=  O ==$===      O         ==$===  ==    ====    ==  ==        ",
"  ====    ======  ==   O O   O                  O          O    ==  ========     O        =$============  =$  ==     O          ",
"  ====    ====$=  ==O        O  O        O             O        ==  ========   O       O  ==============  ==  ==                ",
"=====$$======$  O    O  ==O         O     $=  ====  ==$===        ========  ====     O  ====         O            ==            ",
"==========$===          ==   O            ==O ====  ======        ===$====  ====O       ====               O     O==  O         ",
"==  =$===$======O           O      O====  =$==    =$=$=$    O O   ==$=$=O     $=====  ==  ======          ====    O             ",
"==  ============     O O       O    ====  ====    ======  O       ======      ======  ==  ======          ====                  ",
"==========  ======        ==      ==  ======    ==$=====  ==      ==  O ==  ========  ==  ==      ======      ==  O     ==  O   ",
"==========  ======        ==  O   ==  ======    ==$=====  ==      ==O   ==  ========  ==  ==     O======      ==      O ==      ",
"=========$    ==     O              ====      ===$======O   ====        ==    ====   O        ==  O =$======  O                 ",
"==========    $=                    ====      ==========    ====        ==O   $===        O   ==    ========O        O     O   O",
"========   O==      ==  ==    ==O ==          ==  ==  ======       O  =======$========    $=  ==  ==  ==  O   ==  O   O ==  ==  ",
"======== O  ==    O ==  ==    ==  ==    O    O==  ==  ======          =========$===$==    ==  ==  ==  ==      ==        ==  ==O ",
"==========              ==       O  ==  ====  ========      =$==   O==    ==========  ========$===$=====        ====      O  O  ",
"==========  O           ==          ==  ====  ========      ====  O ==    ==========  =============$====        ====            ",
"================  ======      ====  ======    ==      O ========  ==      ====  ============  ========  ==    ====      ==  ==  ",
"======$===$====$  ======      ====  ====== O  ==        ========  ==      ====  ============  ===$====  ==    ====      ==  ==  ",
"==  ========  ==      ==  ====  ==  ==        ====    ==  ==  ====  ==  ====  ======          ==  ==      ==        O   ==      ",
"==  ======$=  ==      ==  ====  ==  ==        ====    ==  ==  ====  ==  ====  ======          ==  ==      ==            ==  O   ",
"======$=======  ==  ==      ====O                     ==          ==========           O      O         ==             O==  ==  ",
"==$=$=========  ==  ==  O  O$=== O O             O  O ==          ==$======$                     O  O   ==            O ==  ==  ",
"  $===$====$==        ==          O      O====        ======    ==== O====  $===           O  O       ==  ==     O   O    =$==  ",
"  ============        ==   O              ====        ======    $===  ====  ====      O               ==  ==        O     ====  ",
"======      ====    ==          ==        ========  ==  ========    =========$==== O          O   ====     O==  ==          ==  ",
"======    O ====    ==          ==        ========  ==  ========    ==============       O    O  O====      ==  ==          ==  ",
"$===  ==  ==          ========      ====      ==  ==        ======    =======$====     O  @ O     ==  O   ======  O   ==    ====",
"====  ==  ==O         ========O     ====      ==  ==O       ======    ===$========   O            ==      ======    O ==    ====",
"==    ==    ==  O ==      ====$=      O ==          ==    ==          ==  ====    O      O                =$== O  O       ==  ==",
"==    ==   O==   O==   O  ======   O    ==        O ==    ==       O  ==  ==== O             O            ====    O       ==  ==",
"      ==      ==  ==    ==  ====  ==O       ==  ==  ==   O======      ==  O ==            O ==        ======$=    ======    ==  ",
"      ==      ==  ==    ==  ====  ==        ==  ==  ==    ======      ==    ==       O      ==        =======$    ======O   ==  ",
"      ==  ==  ==    ==  ========  ==    ==  ==      ==              ==    ========          ====        ========      ==   O  ==",
"      ==  ==  ==    ==  ========  ==    ==  ==    O ==        O O   ==    ========    O    O====  O   O ======$=      ==      ==",
"    ==    O                 ==  ====  == O    ==  ======    ==     O  ============   O       O  OO      ====  ======    ==      ",
"O   ==                      ==  ====  ==      ==O ==$===    ==        =======$====  O    O  O       O   ====  =$====    ==      ",
"==           O       O========  ====  ====  ==========        O ==  ==  ==========                O     $=  ======  ==  ====    ",
"==   O   O       O    ========  ===$  ====  ==========   O      ==  ==  ===$==$$==    O  O              ==  =====$  ==  ====O   ",
"====      ==  O ==    ==  O ==  ======  ==$=  ==        ==      ==  =========$==  O       ==   O      ==    ========  ====  ====",
"====O     ==    ==    ==    ==  ======  ====  ==        ==      ==  ============          ==          ==    ==$=====  ==$=  ====",
"====  ====  ==      ====      ======  ==  ==  ==    ==    ========  ====$=  ====  ==             O=======$===$==              ==",
"====  ====  ==O     ==== O    ======  ==  ==  ==    ==    ========  ======  ==$=  ==      O OO    ============== O            ==",
"======      ==    ==  ====      =====$      ==== O  ====  ==      ==  ====  ====$========= O    ==  =$=======$====  ====  =$O   ",
"======      ==    ==  ====      ======      ====    ====  ==  O   ==  ====  =======$======      ==  ======$=======  ====  ==    ",
"  $=======  ==  ==      ==      ==    ========== O  ==  ==  ==$=  ==  ==  ==$===========  == O  ====  ==  ====    ==  ====== O  ",
"  =====$==  ==  ==      ==  O   ==    $=========    ==  ==  ====  ==  ==  ==============  ==    ====  ==  ====    ==  ======    ",
"  ===$====         O==        O ====  =$======     O    ====  ==  ==  $===============O       ==  $=========  O      O          ",
"  ========    O     ==     O    ====O ========    O     ====  ==  ==  =====$=========$        ==  ==========                    "
};
