/* XPM */
static char *wall21723392978[] = {
/* columns rows colors chars-per-pixel */
"128 128 19 1 ",
"  c black",
". c #010101",
"X c #020202",
"o c gray1",
"O c #040404",
"+ c gray2",
"@ c #060606",
"# c #070707",
"$ c gray3",
"% c #F6F6F6",
"& c gray97",
"* c #F8F8F8",
"= c #F9F9F9",
"- c gray98",
"; c #FBFBFB",
": c gray99",
"> c #FDFDFD",
", c #FEFEFE",
"< c white",
/* pixels */
"         O   O      OO   O O O<< O  <<<<;<<;      <;      <<  <<;<<< O O O<<    ;< O<<<<<<<<<<<<<<;<<<  <<<<<;   O O<<<<;<;<    ",
"O   O  OO     O O O           <<   O<<<<<<;<O O O <<      <<  <<<<<<     O<<    <<  <;<<<<<<<<<<<<<<<<  <&<<;<O     <<<<<;<;    ",
"      <<;<  << O<<   O;<  O       <<      <<<;    <<<<  <;<<  <<<<   $  << O;<<<;<<<<<  <<<<<<<<;;  <<<<<<<<O    OO  O;<;<<<<<<<",
"  O   <<<<  <<O <<    <<O     O   <<  O O <;<<O  O;<<<  <;<<OO;<<<O   O <<O <;<<<;<;<<  <<<<<<<<<<  <<<<<<<<          <<<<<<<<<<",
" O  <<<<<<<<<<<<       O<<O O <<  O OO O<<  <<;<O $ <<    <<<<<<  ;<      ;<<<<<;<;<<<;<<<<<<<<<;<<<<;;<<<        << O    <<;<<<",
"    <<<<<<<<<<<<     O  <<   O<<        <<  <<<;    <<    <<&<;<  <;$     <;<<;<<<<<<<<<<<<<<<<<<;<<;<<<<<  O    O;<   O  <<<<;<",
"  <;<<;<        <;  O $ <<<<  ;<<<    O   <<<<<<<<  O     <;O   <<<<<;    <<<<  <<  ;<;<<<<<<<<<;<;<<<<<  ;<<<<<<<      <<  <<<<",
"O <<<<<<        <<     O<<<<  <<<<O       <<<<<<<<    O   <<    <<<<<<    <<<<  <<  <<<<<<<<<<<<<;<;<<<<  <;<<<<<<   O  <<  <<;<",
"<<<<<<  <<<<<;  ;<;< O  <<      <<  <<  ;<<<<;<<<<<<<;     O;<;<<<        <<<<;<;< O<<<<;<<<  <<;<;<<<;<       O    O   <<  <<;<",
"<<<<<<  <;<<<;O <<<;O O <<  O   <<  << O<<<<;<<<<<;&<<    O <<<<<<O O O  O<<<<<<<<  <<<;<;<<O <;<<;<<<<<  O       O     << O<<<<",
"<<    ;<;<<<<<;<  <<<<    <<<<<<  <;<<  <<<<;<;<;<  <;;<  <<<<<<<<;;<<           O<<<<;<       O<<<<<;<<  <<O  O<<   O;<        ",
"<<O   <<<<<<<<<<O <<<<    <<<<<<  ;<<<  ;<;;<<<<<;O <<<<  ;<<<;<<<<<<<   O        ;<;<;<O   O   <;<<;<<<OO&<O   <<O O <<   O O  ",
";<;;<<  <;<;<<;<<<<<<<;<  <;    ;<<;  ;<<;<<<<<< O  <<<<<;<<  <<<;  <<<<<<O    O<<<;<<<<<<  <<  ;<  <<<<<;$ << O        <<<<<;  ",
"<;<<<<  ;<;<<<<<<;<<<<<<  <<    <<<<  <;;<<<<<<<    <<<<;<<<  ;<;<  <<<<<<   O O;<;<;<;<<< O<<  <<  <<<<<<  <<      O  O<<<<<<  ",
";<;<<<<;<;O   <<;<<<;<<<<<<<  <<<<  <<<<<;<&O <<<<<<<<   O<<  O <<<<        <;<<;<<<  <<<;<; O O;<<;   O<<    <<<< O  O    O    ",
"<<<<;<<<<<    <<<<<;<;<<<<<<  <<<<O <<<<<<<<  ;<<<<;<<    <<    <<<< O      <<<<<<<<  <<<;<<  O <<<;    <;O   <<<<  O  O    O   ",
"<<    <<;<<<    ;<<<<;   O O<<  <<;<    <<<<;<;<<<<<<<<<;<<<          <<    <<<<<<  O   <<          << O              <<    <<  ",
"<<    <<<<;<O   <;<<<;O     <;  <<<<    <;<;<<<;<<;<<;<<<;<<          << OO <<<<<;      <<  OO   O O<<       O   O  O <<    <<  ",
";<<<O     <<<<<<<<<;<<;< O O  <<<<  <;  <<<<<;<<;;<<    ;< O  ;<<<    <<    ;<    <<       O    <<       OO <<<<         O<;O   ",
"<<<<O O   <<;<<<<<<<<<<<   O O;<<<  <<  <<<;<<<;<<<<    <<  O <<<;    <<O O <<    <<   O  O    O<<O         <<<< O O O    <<  O ",
"<<<<    <<<;<<  <;<;<<;<O ;<<;O <;  <<    <<  <<;<;<<<<< O  <<<< O    << O;<<<O    O    OO  <<  <<  ;<  <<  O O << O    <<  O <<",
"<<<;    <<<;<<  ;<;<<<<<  <;<< O<;O <<O   <<  <<<<<;<<<<    <<<<O     <<  <<;<       O O    <<O <<O <<  << O    <<  O   <<O   <<",
"<<  <<    <<  <<<;O   << O;<;<<<<<  <<;<  <<<<  <<    <;;<<<     O;<<<  <<<<    <<        O     ;<<<  <<  <<       O<<<<<<;<    ",
"<<  <<    <<  <;<<    <<  <<<<<<<<  <<<<  <<<<  <<    <<<<<<      <<<<  <<<<    << O O          <<<<  <<  <<        <<<<<<<<   O",
" O  <<<<<<    <<  <<;<<<  <;    <<  <<      <<<<  <<<<<<<<    <<;<       O   O;<  O <;      <<;<    O     <<  <<;<  <<    <<<<  ",
"  O <<<<<<    <<  ;<<<;<O <<  OO<;  <<  OO  <<<<  <<<;<<<<   O<<<<$ O    OO $ <<    ;<    OO<<<<      OO  <<  <<<<O <<    <<<&  ",
" O  <<  <<<<<<<<O   <;O <<<;O <;<<  <<<<  <;<<  <<    ;< O    << O;<  <<  <<    O O  O O<<  O    O<;O     ;<<<  <<  <<   O  OO O",
"  OO;<  <<<<<<<<    <<  <<;<  <<<<  ;<<<  <<<;  <<    ;<  O O <<  <<  <;O ;<        O   <<O    O  << O O  <<<<  <<  <;          ",
";<;<  << O  O  O  OO  <<  <<<<<<  <<O    O<< O<<<<<<<;<<<<   O    O <<<<;<OOO   O O O      O      <<<;O   <<;<<<<<<<<<<<      O ",
"<;<; O;<          O   <<  <<<;;<  <<      <<  <<<<<<<<<<<<  O     O <<<<<<   O         O         O<<<<    <<<<<<;<;<<<;< O  O   ",
" O;<<<   O        <<  <<<<<<     O;<  <<<<<<<<<<<<  ;<<<    <<<<   O;<<;   OO <<O   O       <<  <<  <<     O;<<<<;      <;O   O ",
"  <<<<            <<  <<<<<<      <<O <;<<<<;;<;<<  <<;<    <<<<  O <<<<      << O O OO     <<  <<  <<      <<<<<<  O   <<O    O",
"<<<<;<          <<      <<    << O    << O  <<  <<;<  <<;<     O  ;<<<  <<  <<<<O O            O;<<<    <<        <<<<<<;<<<;<<<",
"<<<<<<        O <<  OO  <<    <<      <<O O <<  <<<;  ;<<<  O   O <<<<O <<  <<<<   $  O  O      <<<<    <<        <<;<<<<;<&<<;<",
"    <<    <<<<     O      O <<   O O<;<;;<<<<<<< O  <<<< O O    <<;;<;  <;<<;<<<<<   O  <<  <<   O   O O      <<<<<<<<<<;<<<  <<",
"O   <<O  O<<<<    O    OO   <<O     <<;<<<<;<;<<O   <<<;   O    <;<<<<  <;<<<<<<<<  O   <<  <<      O O       <<<;<<<;<<<<<;  <;",
"<<   O    O  O  OO  <<   O  <<;< O<<<;<<  <<<<<<  <<<<  <<<<<<<<<<;<<<<<<<<<<<     O $;< O<<O <<<<<<   O  <<O         <<  <<    ",
"<; O  O             <<O   O <<<<  <<<<<<  <<;<<<  ;<<<  <<<<<;<<<<<<<<;<<<<;<<    O O <<  <<  <<;<;< O    <<          <<  <<O O ",
"<<   O    O       O       O     <<<;<<;<<<  <<  <<O   <<<<<< O;<<;<<  <<  <<  <<      ;<<<<;O   <;$   O   <<O    O<<<<  <<  ;<<<",
"<<                    O         <<<<<;<<<<  <<  <<    <<<<<;  <<<<<;  ;<  <;  <<      <<<;<<    <<        <<      <<<<  <<  <<<<",
"<<  <<       O  <<     O    <<  << O  <<  <<  <<  <<<<<<;<;<<<;< O;<<<;<;< O<<<< O     O<<   O<<;<  O       <<  <<  <<<<    <<<<",
"<<O <<  OO    O <;O     O   <<O <<O  O;< O<< O;<  ;<<<<<<;<<<<<<  <<<<<;<<  ;<;<OO O    ;<    <<<;OO O   O  <<  << O&<;<O   <<<<",
"<<     O<<  O        O O O  <<;<;;      << O<<  <<  <<    <<<;<< O<<<<<<<<    <<<<  <<<<<<O O << $  O ;<<<O           <<<<  <<;<",
"<< O  O <<  O   O        O  <<<<<<  OO  <<  <<  <<  ;<    ;<;<;< O;<<;<<<<   O<;<<  <<<<<< O O<<      <<<< OO   O    O<<<;O ;<<<",
"<<        <<    <<  O <<  O ;<;<;<;<;;<<<<   O;<<<;<<<O <;O <<<<  <<  <<  <<       O  <<             O<<<<    <<<<  <;    ;<<<<;",
"<;  O  O  ;< O O<<    ;< O  <<;<<<<<<<;<<<O   <<;<<<<<  <<  <<;<  ;<  <<  << O   O   O;<    O   O O  O<<<;   O<<<;  <<    <<<<;<",
"  <<<<   O O          O     <<;<<<  <;O   ;<;<<<<<<<<<  <<;<<<O  O O;<;<<<O <<;<<<  <;O  O<<<<;<<<;<  O ;<<<     O<;<;<<<<<;<;  ",
"  <;<<  O   O     O     O   <<<<<<  <<    <<<<;<<<;<<<  <<<<<<O O   <<<<<<  <<<<<<  <<    <<<<<<<<<< O  <<<<   O  <<<<;<<<<<<<  ",
" O     O O O   O         O O<<<<;<<<      <<<<<<  <<<<      O   <<  ;<<<;<;<    ;<  <<  ;<;<  ;<  ;< O  <<    << O  <<   O  OO O",
"O     O      O  O O         <<;<<<<;O O   <<<<<<O <<;<     O   O<<  <<<<<<<;    <;  <<  <<<;  <<O <<O O <<    <<O   <<  O O   O ",
"  <;O  O;<O O  O OO OO O  <<  <<<< O   O;<<<;<<<  O <;      O   ;<<<<;<<;;<<    ;<    <<&<<<<;;<   O   O  <<   O  <<<<OO O     O",
"O <;O   <<  O        O    ;<O <<<;    O ;<;<<<<; O  <<O  O  OO O<<<;<<<<<<<;O O <<OO  <;<<<<<<<<O         <<O     <<;<          ",
"  O <;    OO    <<<<  <<   O O;<<<O OO O<&O  O     O;<<<<;    O <<  <<    <<<<   O  <<;<<<<;  <<  O    O<< O<<<<<<<;<<O <<<<<<  ",
"  O <<          ;<;<  <<    O ;<<<      <<       O  <<&<<<O OO  <;O <<    <<<<   O  <<<<;<<<OO;<        <<  <<;;<;<<<<  ;<<<<<  ",
" O;<O <<<< O<<<;  <<<<<<;<  <;<<<<   O      O <<<<  <<O  O    O   O        OO O  O  ;<<<<<<<;<    <<<<<<   O  O  O<<      << O  ",
" O<<  <<<<O <<;<  <;<<<<<<O <<<<<<O    O O    <<<<  <<    O  O        O O           <<<<<<<;<<    <<<;<<          <;   O  <<    ",
"<<<<<<<<;<;<<<<<<<<;<<<<  <<<<<<   O;<;<;<    <<<<<<<<<<;<<;O         O <<    O    O<<      <<  <<    <<<<            << O  <<<<",
"<<<;<<<<<<;<<<<;<<<<<;<<  <<;<<;  O <<<<<;O O <<<<;<<<<<<;<<    O O O   << O O  O OO<<O OO O<<  <<    <<<<  O      O  <<    <<;<",
"O  O O;<;<    <<<<<<<<<<<<<&OO     O<<<<<< O;;<;      <<            <;  <<  O O        O<<  ;< O<<<<  <<<<  <<<<O       <<<<  <<",
"      ;<<<  O <<<;<;<<<<<<;<    O   <<;<<< O<;<<O     <<  O  O O O  <<  <;   O  O$  O   <<  <;  <<<<  <<<<  <<<<     O  <<;<  <;",
"<<<<<<<<  <<;<<<  <<<<<<<;<<;<<<    <<OO<;<; O<< O<<  << O  <<O   << O<<<<<<<<  <;   O    << O;<<<     O<<<<  << O<<O O <<  <<  ",
";<<<;;<< O<<<<;<  <<;<<<<<<<<<;<O  O;<  ;<<<  <<  <<  << O  <<OO O<<  <<<;<<<<  <<   O O  <;O <<<<O     <<<<  ;<  << O  <<  <<  ",
"  <<  <<<<  <<<;<<<;  <<<<<<;<<<<<   O<<<<;<  << O O    <<<<    <<<;  <<  <<  <<<<        <<  ;<<<<<O O <<<<  <<        << O;;<<",
"  <<  <<<<  <;<<<<<<  <<<<;<<<<<<<    <<<<<<  <<O       <<<<    <<<<  <<  <<  <<<<   O    <<  <<<<<<O   <<<<  <<        <<  <<<<",
"  <<<<<<  <<<<;<<<O <;;<  <<;<<<;<    <<  <<  <<;<;<  << O    <<;<  <<  ;<<< O<<<<<<     O    O   ;<  << O<<     O  <<<<;<      ",
"  ;;<;<<  ;;<<<<<<  <<<<  <<<;<;<<    <<  <<O <<<<<<  ;<O     <<<<  <<  <<<<  <<<<<;    O O    O  << O<<  <<    O  O<<<<<&O     ",
"<<<<<<<<<<<<<;<<<;  ;<<<<<  <<;<;<<<O O           ;<<<<< O  << O   O O<<  O <<      <<<<;<   O  << $;<<< O     O         O<;<<<<",
"<<<<<<;<;<<;<<<<<<  <<;<<<  <<<<<<<< O    O     O ;;<<<<O   <<       O&<    <<  O   <<&<<<O     <<O ;<;<    O O OO        <<<<<<",
"<<;<<;<<<<<<;<<;<<  <<<<<<O <<;<<<   O   O  <<;<<<   O O O    <<O   O O   <<  <<  <<<<<<    O <<  ;<<<  <;O     <<  <<;<<<      ",
"<<<<<<<<<<;<<<<<<<OO&<;<<; O;<<<<<   O    O <<<;<<         O  <<  O       <<  <<  <<<&<<  O O <<  <<<<  <<  O   <<O <<<;;<     O",
"     O;<<<      <;<;<;<<<<<;O   ;<<<   O  <<  <<<<<<   O     O;<<<  <<   O  <;<<<;<<<<<<    <;O     <<<<<;<<;<<< O<;  <<<<<<<<<<",
"      <<<<      <<<<;<<<<<<<    <<<<      <<  <;<<<<      O   <<<< O<<  O   <<<<<<;<;<<<  O <<      <<<<<<<<<<<<  <<  <<;<;<<<<<",
"<<  <;<;<<  O <<<<  <<<<;<<<  ;<<<        <<<<<<  <<<<      O O ;<<<;<<<<<<<    ;<;<<<  <<<<;<    <<<<<<;<;<O     <<<;<<;<;<  <<",
"<; O;<<<<<    <<<;O <<<<<<<;  <<<<O     O <;<;<<O <<<;O O O     <<<<<<<<<<<;    <<<<<<O <<<<<<O  O<<<<;<<<<;     O<<<<<<<<<< O;<",
"<<  <<  ;<   O<<      << O<<<<;<<<     O<< O<<<;<<   O;<    O O <<  <<         O;<<<        ;<;<<<<<<<  <<<<<;  <<<;<<;< O  <<<<",
"<<  <<  <<O   <<  OO  <;  <<<<<;<;  O O <<  <<<<<<    << O   O O<;O <<       O  ;<<;O       <<<;;;<<<<  <;<;<<O <<;<<;<<    <<;<",
"<<  <<       O  <<;<     O<<<< O O O O<<<<  O   << O<<<<<;    O     <;    <<<<  O  $;<  <<  <<<<<<    <<;<<<;<;<<<<<;<;<<<<<<<;<",
"<<O <;      O  O<<<< O   O;<<< O      <<<<    O ;< O<<;<<<O O  O    <<O   <<<<      <<  <<  ;<<<<<   O<<;<<<<<<<<;<;<<<<<<;;<<;<",
";<;;<;<<<;O         <<$  O  ;<        <<;<<<  ;<         O&<<<  <<<<<<   $ OO  O    <<<<;<<<<<<<  <<O <<<<<<   O<;<<;<<<<<<<<;<<",
"<<<<<<<<<<     O    <<      <<        <<<<<<  << O O      <<<<  <<<<<<    O         <<<<<<<<<<<;  <<  <<<<<;    <<<<<<;<<;<<<<;<",
";<<<  <<   O<<     O     O<<  << O  <<      <<<<;<;<  << O    O    O     O  O    O  O <<<<<<<;<<<<;<    <<<< O  ;<<<<<    <<<<<<",
"<;<;O <<O   <<  O    O  O <<  <<O  O<<O O   <<<<<;<< O<<  O    OO O OOO O    OOO   O O<<<<;<<<<<<<<<O   <<<<O   <;<<<;O   <<<<<<",
"  ;<       O<<   O       O    <<        <<;<  <<;<<<<;  ;<<;<<O          O            <<<< O;<<<;<<<  O        O    OO O<<<<<<;<",
"  <<O       <<O       O O     <; O  O O <<<<  <<<<<;<<  <<<<<< OO     O       O   O  O&<<<  <<<;<<<<O O      O          <;<;<<<<",
"    <<;<O   <<    <<  <<  OO  <<O O  O;<<<      << O  <<  <<      O O    O  O   O  O  $    O<<  <;             O  O  O O  <<<<<<",
"    <<<<    ;<    <<  ;<   O O;<   O O<<<<  O O <<    ;<  <<      O  O O  O$ O              <<  <<      O        O   O    ;<;<<;",
" O<<      <<    O <<  $   O <;O  O  O <<<<<<<<<<  ;<<<O  O<<  O  O O;;O  O;&$ O O O O <<<<    <<<<       O   O O       OO <<<<  ",
"  <<  O   <<O     << O      <<        <<<<<;<<<<  <<<<    <; O      << O  << O        <<<<    <<<<O O O   O O     O  O    <<<<  ",
"  <<<<     O      <<;< O  ;<<<<<<<O         <<<< O<<     O O    <<<<  <<<<  <<    O <;   O O  <<<;       O O     O        <<    ",
"O <<<<O O   O   O <;<;O   <;<<;<<<    O     <<<<  <<    O   O O <<<<  ;<<;O <<      <<  O O   <;<<  O   O O   O O O O O  O<< O O",
"<<  << O<<;<O O ;< O O  <<;<<<<<  O O     OO  ;<;<<<<<<<<< O  <;;<<;<<   O<; O;<  <<<;<<;<  <;<<<<       O     O O    <<   O<<O ",
"<<  <<O <<<<O O <<      <<<<<<<<  O       O   <<<<<<<;<<<<   O<<<;<<<<    <<  <<  <<<<<<<<  <<<;<;      O   OOO  O  O << O  <<  ",
"<<    <<;<<<  ;<  <<O <<  <<     O<<<<<<O   <<  <;  <<<<<<  <;  <<<<<<;<<<<;<<  <<<<  <<      ;< $  O    O    ;<<;O       O    O",
"<<    <<<<<< O<<  <;O <<  <<O O   <<<<<<    <<  <<  <;;<<< O<<  <;<<<;<<<<<<<<  ;<;<  ;<O     <;      O  O  OO;<<<  OO    O     ",
";<<<<<;<<<    <<<<O   << O;<  ;<<<<<O O O <;O   O   <<<<;<<<<;  <<  <<<<<<    <<<<<;  << O<<<<<<<<<;O      O  O << O     O O O<<",
"<<<<<<<<<<    <<<<    <<  <<  ;<<<<<      <<        ;<;<<<<<<<O <;  <<;<<<    <<<<<<  <<  <<<<<<<<<<    O       <<  O    O    <<",
";<  <<<<;<<<<<<<<<  <;<<<<<<;<   O  OOO  O O           O;<<<;<<< O     O O    <<<<;<          ;<<<  O          O O       O<<<<  ",
"<<  <<<;<<<<<;<;<;  ;<<<<<;<<;    O     O       OO   O  <<<;<<<<   O  O O    O;<<<<<    O O   <<<;    O     O   O  O  O   <<<<  ",
"  <<;<<<  ;< O<<<<<;<<<<;;<<<<   O   O    <<<<<<  <<    <<OO<;   O  <<  ;<<<  <<  << O  <<  <<<;<<;;O   <<<<        O O <<  <<<<",
"  <<<<;;  <<  <<<;<<&<<<<<<;;<  O     O   <<<<<<  <;O O <;O <<     O;<O <<<< O;<  <<  O <<  ;<<<<;<<  O ;<<<O O OO      <<  <<<<",
"<<  <<<<<<    O <<<;O <<  <<O     O  O  <<O O   O  O O O $  <;   O<<O     O <<<<<<<<OO O<<<; O<<<<    O <<   O       O  <<<<  <<",
"<<  <<;;;<  OO O<<<<  <<  <<  OO    OO  <; O O       O      <<O   <<   OO   <<<<<<<<    <<<; O;<<<O O   <<          O   <<;<  <<",
"  <;<;  <<<<  O <;O    O O O  ;<<;O   O  O  <; O<< O  O  O O     O  <;;<;<    <<  ;<    <<;<;<<<   O  << OO O << O O O;<;<;<<<<<",
"  <<<<  <<<< O  ;<   O        <<<<     O    <<  <<O                 <<<<<<O   <<  <<    <<<<<<<<  O   <<      <<      <<<;<<<<<<",
"<<;<<;<<;<;<        <<             O             O O         O<<  ;<  <<    O             <<    <<  <<   O O  <<;<;<<<  <<<<  ;<",
"<<<<;<<<<;<;O O  OO <<  OO O   OO    O   O  O     O O   O  O  <<O <;  <;O   O    O  O   O << O  <<  <<  O O   <<<<<<<<$ <<<<  <<",
" O;<<<  <<;<&<<;    << O  O  O<<      O  O    << O    ;<<<<<O OO<<<<   O  <<O <<<<<;  <<  <<   O  <<  <<  <<;<<<<<<<    <;<;<;<<",
"  <<<<O <<<;<<;<    ;;      O <<    O        O;<O     <<<<<;    <<<<  O   <;  <<<<;<  <<  ;<      <<  <<O <;<<<<;<<<O   <;<;<<<<",
"<<;<    <&;<<<<<<<<;<<  ;<<<   O<<<<  <<   O  O       <<    O     << O<<;<<<<<  <<    <<   O O       O O<<<<;<<<<<  ;<<<<<<<<&  ",
"<<<;    <;<<<<;<<<<;<;  <;<<    ;<<;O ;< O        O  O<<    O     ;< O<<<<<;<<  <<    <<     O   O  O   <<<<;<<<<;  ;<<<<<;<<<  ",
"  <<<<   O;<<;<<<;<<<<<<    <<   O;<  <<    ;<     O<;    <<    <<O      O O  <<  <<O   <<  <<  <<     O  <;    ;<<<<<<;<<<<    ",
"  <<<<    <<;<<<<<<<<;<<    <<O   <<O <<    <<  O O <<    << O  <<  O    O    <<  <<O   <<  <<  <<  O     <<    <<<<;<<<<<<< O  ",
";<;<<<  ;<;<<<  ;<;<<<<<<< OO O <<    <<<<      << O  <<<<               O    << O O          <<;< O   O<< O      <<<<<<  <<    ",
"<;<<<<  <<<<<<  <;<<<<<;<;O     <<   O<<<;O   O <<  O ;<<<         O  O       <<O   O O    OO <<<;O   O <;O   O   <<<<<<O <;O  O",
"    <;;<;<<<<<<<;<  <<;<   O;<O  O  <<   O  <<  ;<  <<<<<<<<O <<<<     O O<<O   ;< O<; O  O   << O  O  O O    <<  <<  <<   O;<  ",
"    <<<;<;<<;<<<<;O <<<<  O << O O  <<    O <<  <<  <<<<<;<;O <<<<        <;O   <<  <;O      O<<O          O O<<  ;<  <<    << O",
"  <<<<<<<<;;<<  <<<<<;    <<<;      <<    <;O <<  <;<<     O;<  << O     OOO   O     O   O OO O O     O   O O << O  <<  O <;O   ",
"  <<<<<<<<<<<;  <<<<<;    <<<<O    O<<   O;<O <<  <<;<      <<  <<       O  OO     O O               O    OO O;<    <<    << O O",
";<  <<  ;<<<<<<<<;   O<<<<  <<<<<<<<<<<<  <<<<  <<<<<;<;<;<<<;OO      O       O <<         O      O       <<  <<<<    <<  &;<<O ",
"<<O <<  <;<<<<<<<<    <<<<  ;<<<<<<<<<<<  <<<<  <<<;<<<<<<<<<<          O   O   <<OO  O     O O     OO    <<  <<<<    <<  <<<<  ",
" O;<  <<<<;<;<<<  <<<<<<  ;<;<   O    <<  <;<<<<  <<<<  <<       O;<  <<  <<<<<<        <<  <<  <<<<<<            <<;<<< O  <<  ",
"  <;  <<<<<<<<;<  ;<<<<<O <<<<   O  O <<  ;<;<<<  ;<<<  <<   O    << O;<  <<<<<<        <<O <<  <<<;<;O O O     O <;<<<<O   <<  ",
"<<;<  <<;<<;<;  <<<<<;  <<<<<<<<   O  <<<<<;<<<<<<<<  << O;<<<     O<;O  O                 O O     $ O<; O  <;     O<< O O<<<;  ",
"<<<<  <;<<;;<<  <<;<;<  <<;<<<<;O   OO<<<<<<;;<<<<<;  <<  <<<<  O   <<      O             $    O O    <<O   <<      <;    ;<<<O ",
";<<<  <<<<<<;<;<<;O <;<<<<<<<<   $ O<;<<<&<;    <<;<  <<<;    O   O O  O     O<<        OO O<<  <;O <<<;<<<<  << O  OO<<  O     ",
"<<<;$ <<;<;;<<<<<<  <<<<;<<<<<      <<<<;<<;O   <<<;  <<;<     O         O O  <<            <<  ;<  <<;<<<<<  << O O  <<   O    ",
"  ;<&;<<<<  ;<<<<<<<<<  <;<<  <<        <;<<;;<;<<<<<<<<<<O O O  O O   O O                O    O  O       <<<<  <<    <<<<   O O",
"  <&<<<<<<  <<<<;<;<<<  <<<<  <<        <<<<<<<<<<<<<<<<<<      O    O                       O            <<<<  <<    <<<<    O "
};
